<svg width="4191" height="2511" viewBox="0 0 4191 2511" fill="none" xmlns="http://www.w3.org/2000/svg">
<path d="M637 4.97283C305.272 14.5983 34.4558 194.24 62.6918 392.818C78.4968 504.662 250.931 563.984 335.816 620.9C659.198 837.788 618.887 925.464 786.704 919.291C1264.05 901.819 1361.72 651.346 1326.56 448.478C1291.22 245.715 1187.51 -10.9302 637 4.97283Z" fill="#23FA4B"/>
<path d="M741.954 405.372L745.682 494.931C751.009 618.912 925.93 716.842 1136.19 713.807L1280.03 711.714C1332.24 629.793 1341.48 534.899 1326.38 448.478C1310.76 358.082 1281.46 256.909 1204.74 173.941L1113.28 175.302C903.022 178.44 736.627 281.496 741.954 405.372Z" fill="#CFFAFE"/>
<path d="M1204.74 173.941L1108.84 175.407C898.584 178.546 732.187 281.601 737.337 405.477L741.065 495.036C746.392 619.016 921.313 716.946 1131.57 713.912L1279.86 711.714" stroke="#095C19" stroke-width="3" stroke-miterlimit="10" stroke-linecap="round" stroke-linejoin="round"/>
<path d="M1323.37 608.03C1319.99 608.03 1316.26 608.135 1312.71 608.03C1234.75 607.193 1182.01 584.071 1165.31 576.329" stroke="#095C19" stroke-width="3" stroke-miterlimit="10" stroke-linecap="round" stroke-linejoin="round"/>
<path d="M1133.39 471.955C1180.36 471.262 1217.09 439.186 1215.44 400.31C1213.79 361.433 1174.38 330.48 1127.42 331.172C1080.45 331.863 1043.72 363.939 1045.37 402.816C1047.02 441.692 1086.43 472.646 1133.39 471.955Z" stroke="#095C19" stroke-width="3" stroke-miterlimit="10" stroke-linecap="round" stroke-linejoin="round"/>
<path d="M579.64 2348.46C650.496 2414.48 740.177 2452.57 824.529 2474.33C966.597 2510.95 1094.28 2501.74 1094.28 2501.74L1093.75 2499.33L1094.82 2501.74C1094.82 2501.74 1419.62 2478.3 1531.67 2279.94C1593.83 2170.08 1749.39 1383.19 1669.66 1191.94C1589.74 1000.79 1202.07 936.763 776.049 967.523C709.81 972.335 645.524 979.136 583.902 988.029C249.865 1036.58 0.181231 1146.11 0.713986 1312.26C1.60191 1509.06 474.332 2250.64 579.64 2348.46Z" fill="#23FA4B"/>
<path d="M1421.04 1199.16L1374.15 2079.68C1374.15 2079.68 1370.43 2287.47 1248.25 2375.04" stroke="#095C19" stroke-width="3" stroke-miterlimit="10" stroke-linecap="round" stroke-linejoin="round"/>
<path d="M442.367 316.859C442.367 316.859 181.673 328.577 164.98 455.278C159.297 498.279 288.758 578.212 381.102 646.322C465.455 708.47 513.225 761.096 513.225 761.096" stroke="#095C19" stroke-width="3" stroke-miterlimit="10" stroke-linecap="round" stroke-linejoin="round"/>
<path d="M2082.54 966.685C2218.87 966.685 2329.38 901.574 2329.38 821.256C2329.38 740.938 2218.87 675.827 2082.54 675.827C1946.2 675.827 1835.69 740.938 1835.69 821.256C1835.69 901.574 1946.2 966.685 2082.54 966.685Z" fill="#23FA4B"/>
<path d="M4190.29 381.518V1113.68C4190.29 1410.08 3831.57 1680.85 3264.72 1812.37H3264.54C3175.57 1832.98 3073.81 1832.98 2985.02 1812.37C2417.99 1680.85 2059.27 1410.08 2059.27 1113.68V381.518L2186.96 372.206C2454.93 352.746 2714.21 309.117 2952.7 243.308L3124.78 195.809L3296.86 243.308C3535.53 309.117 3794.63 352.746 4062.61 372.206L4190.29 381.518Z" fill="#D1D5DB"/>
<path d="M3124.78 1736.3C3101.52 1736.3 3079.14 1733.79 3058.01 1728.88C2551.36 1611.38 2236.86 1375.66 2236.86 1113.68V461.032C2517.26 439.165 2786.13 393.131 3036.52 324.079L3124.78 299.701L3213.04 324.079C3463.26 393.131 3732.3 439.165 4012.7 461.032V1113.68C4012.7 1375.66 3698.2 1611.38 3191.91 1728.88L3190.67 1729.19C3169.71 1733.9 3147.69 1736.3 3124.78 1736.3Z" stroke="#095C19" stroke-width="3" stroke-miterlimit="10" stroke-linecap="round"/>
<path d="M2915.05 1216.42L2604.99 1025.28C2557.58 995.98 2559.35 949.632 2608.9 921.697C2658.62 893.762 2737.29 894.808 2784.71 923.998L2997.81 1055.4L3519.37 742.893C3567.5 714.016 3646.17 713.702 3695.18 742.056C3744.2 770.409 3744.73 816.758 3696.6 845.634L3076.66 1217.05C3032.08 1243.83 2958.92 1243.52 2915.05 1216.42Z" fill="#095C19"/>
<path d="M1979.36 785.057C1979.36 785.057 2120.01 726.572 2165.65 761.935C2223.18 806.61 2074.55 860.701 2074.55 860.701" stroke="#095C19" stroke-width="3" stroke-miterlimit="10" stroke-linecap="round" stroke-linejoin="round"/>
<path d="M2057.67 1356.52C2194.01 1356.52 2304.52 1291.41 2304.52 1211.09C2304.52 1130.78 2194.01 1065.66 2057.67 1065.66C1921.34 1065.66 1810.83 1130.78 1810.83 1211.09C1810.83 1291.41 1921.34 1356.52 2057.67 1356.52Z" fill="#23FA4B"/>
<path d="M2096.92 1081.67C2096.92 1081.67 2200.1 1022.98 2250 1035.53C2299.9 1048.08 2218.03 1140.47 2218.03 1140.47L2225.14 1174.05C2225.14 1174.05 2365.78 1122.68 2399.52 1159.4C2435.22 1198.22 2260.65 1260.05 2260.65 1260.05L2096.92 1081.67Z" fill="#23FA4B"/>
</svg>
