<svg width="236" height="240" viewBox="0 0 236 240" fill="none" xmlns="http://www.w3.org/2000/svg">
<g clip-path="url(#clip0_4512_1680)">
<path d="M35.87 0.475029C17.19 1.39503 1.94006 18.5651 3.53006 37.5451C4.42006 48.2351 14.13 53.9051 18.91 59.3451C37.12 80.0751 34.85 88.4551 44.3 87.8651C71.18 86.1951 76.68 62.2551 74.7 42.8651C72.71 23.4851 66.87 -1.04497 35.87 0.475029Z" fill="#23FA4B"/>
<path d="M41.7804 38.745L41.9903 47.305C42.2903 59.155 52.1403 68.5151 63.9803 68.2251L72.0803 68.025C75.0203 60.195 75.5403 51.1251 74.6903 42.8651C73.8103 34.2251 72.1604 24.555 67.8404 16.625L62.6903 16.755C50.8503 17.055 41.4804 26.905 41.7804 38.745Z" fill="#CFFAFE"/>
<path d="M67.8402 16.625L62.4402 16.7651C50.6002 17.0651 41.2302 26.915 41.5202 38.755L41.7301 47.315C42.0301 59.165 51.8801 68.5251 63.7201 68.2351L72.0702 68.025" stroke="#095C19" stroke-width="3" stroke-miterlimit="10" stroke-linecap="round" stroke-linejoin="round"/>
<path d="M74.5202 58.115C74.3302 58.115 74.1201 58.125 73.9201 58.115C69.5301 58.035 66.5601 55.825 65.6201 55.085" stroke="#095C19" stroke-width="3" stroke-miterlimit="10" stroke-linecap="round" stroke-linejoin="round"/>
<path d="M63.8226 45.1094C66.4672 45.0432 68.5358 41.9774 68.4429 38.2616C68.35 34.5458 66.1307 31.5873 63.4861 31.6534C60.8414 31.7195 58.7728 34.7853 58.8658 38.5011C58.9587 42.2169 61.1779 45.1755 63.8226 45.1094Z" stroke="#095C19" stroke-width="3" stroke-miterlimit="10" stroke-linecap="round" stroke-linejoin="round"/>
<path d="M32.6401 224.465C36.6301 230.775 41.6801 234.415 46.4301 236.495C54.4301 239.995 61.6201 239.115 61.6201 239.115L61.5902 238.885L61.6502 239.115C61.6502 239.115 79.9401 236.875 86.2501 217.915C89.7501 207.415 98.5101 132.205 94.0201 113.925C89.5201 95.6553 67.6901 89.5353 43.7001 92.4753C39.9701 92.9353 36.3501 93.5853 32.8801 94.4353C14.0701 99.0753 0.010087 109.545 0.040087 125.425C0.090087 144.235 26.7101 215.115 32.6401 224.465Z" fill="#23FA4B"/>
<path d="M80.0201 114.615L77.38 198.775C77.38 198.775 77.17 218.635 70.29 227.005" stroke="#095C19" stroke-width="3" stroke-miterlimit="10" stroke-linecap="round" stroke-linejoin="round"/>
<path d="M24.91 30.2852C24.91 30.2852 10.23 31.4052 9.28997 43.5152C8.96997 47.6252 16.2601 55.2651 21.4601 61.7751C26.2101 67.7151 28.9001 72.7451 28.9001 72.7451" stroke="#095C19" stroke-width="3" stroke-miterlimit="10" stroke-linecap="round" stroke-linejoin="round"/>
<path d="M117.27 92.3952C124.947 92.3952 131.17 86.172 131.17 78.4952C131.17 70.8185 124.947 64.5952 117.27 64.5952C109.593 64.5952 103.37 70.8185 103.37 78.4952C103.37 86.172 109.593 92.3952 117.27 92.3952Z" fill="#23FA4B"/>
<path d="M235.96 36.4653V106.445C235.96 134.775 215.76 160.655 183.84 173.225H183.83C178.82 175.195 173.09 175.195 168.09 173.225C136.16 160.655 115.96 134.775 115.96 106.445V36.4653L123.15 35.5753C138.24 33.7153 152.84 29.5453 166.27 23.2553L175.96 18.7153L185.65 23.2553C199.09 29.5453 213.68 33.7153 228.77 35.5753L235.96 36.4653Z" fill="#D1D5DB"/>
<path d="M175.96 165.955C174.65 165.955 173.39 165.715 172.2 165.245C143.67 154.015 125.96 131.485 125.96 106.445V44.0654C141.75 41.9754 156.89 37.5755 170.99 30.9755L175.96 28.6455L180.93 30.9755C195.02 37.5755 210.17 41.9754 225.96 44.0654V106.445C225.96 131.485 208.25 154.015 179.74 165.245L179.67 165.275C178.49 165.725 177.25 165.955 175.96 165.955Z" stroke="#095C19" stroke-width="3" stroke-miterlimit="10" stroke-linecap="round"/>
<path d="M164.15 116.265L146.69 97.9955C144.02 95.1955 144.12 90.7655 146.91 88.0955C149.71 85.4255 154.14 85.5255 156.81 88.3155L168.81 100.875L198.18 71.0055C200.89 68.2455 205.32 68.2155 208.08 70.9255C210.84 73.6355 210.87 78.0655 208.16 80.8255L173.25 116.325C170.74 118.885 166.62 118.855 164.15 116.265Z" fill="#095C19"/>
<path d="M111.46 75.0356C111.46 75.0356 119.38 69.4456 121.95 72.8256C125.19 77.0956 116.82 82.2656 116.82 82.2656" stroke="#095C19" stroke-width="3" stroke-miterlimit="10" stroke-linecap="round" stroke-linejoin="round"/>
<path d="M115.87 129.655C123.547 129.655 129.77 123.432 129.77 115.755C129.77 108.079 123.547 101.855 115.87 101.855C108.193 101.855 101.97 108.079 101.97 115.755C101.97 123.432 108.193 129.655 115.87 129.655Z" fill="#23FA4B"/>
<path d="M118.08 103.385C118.08 103.385 123.89 97.7755 126.7 98.9755C129.51 100.175 124.9 109.005 124.9 109.005L125.3 112.215C125.3 112.215 133.22 107.305 135.12 110.815C137.13 114.525 127.3 120.435 127.3 120.435L118.08 103.385Z" fill="#23FA4B"/>
</g>
<defs>
<clipPath id="clip0_4512_1680">
<rect width="236" height="240" fill="white"/>
</clipPath>
</defs>
</svg>
