<svg width="12" height="50" viewBox="0 0 12 50" fill="none" xmlns="http://www.w3.org/2000/svg">
<g clip-path="url(#clip0_4509_1182)">
<path d="M4.5001 49.1561L11.5444 40.0068L0.0986328 38.4809L4.5001 49.1561ZM3.54529 1.45332C3.62687 1.7154 3.71195 2.01898 3.79899 2.36472L5.73847 1.87645C5.644 1.5012 5.54915 1.16164 5.45491 0.858887L3.54529 1.45332ZM4.21019 4.26751C4.32048 4.85561 4.42945 5.50502 4.53453 6.21548L6.51301 5.92284C6.40449 5.18916 6.29134 4.51429 6.17592 3.89884L4.21019 4.26751ZM4.79491 8.1795C4.86872 8.80272 4.93894 9.4611 5.00444 10.1545L6.99558 9.96633C6.92864 9.2578 6.85676 8.58371 6.78102 7.94425L4.79491 8.1795ZM5.1706 12.1328C5.21798 12.7731 5.26124 13.4383 5.29972 14.1282L7.29661 14.0168C7.25748 13.3151 7.21343 12.6378 7.16515 11.9852L5.1706 12.1328ZM5.39394 16.1127C5.41944 16.7591 5.44075 17.4244 5.45743 18.1086L7.45684 18.0599C7.43992 17.3658 7.41828 16.6904 7.39239 16.0339L5.39394 16.1127ZM5.49204 20.1103C5.49876 20.7591 5.50137 21.4233 5.49953 22.1026L7.49952 22.108C7.50138 21.42 7.49874 20.7472 7.49193 20.0896L5.49204 20.1103ZM5.48167 24.0983C5.47183 24.7513 5.45794 25.4172 5.43973 26.0958L7.43901 26.1494C7.45743 25.463 7.47148 24.7893 7.48144 24.1285L5.48167 24.0983ZM5.37485 28.0937C5.34994 28.7486 5.32107 29.4145 5.28804 30.0915L7.28566 30.1889C7.31904 29.5049 7.34822 28.8318 7.37341 28.1698L5.37485 28.0937ZM5.1802 32.0885C5.14142 32.7442 5.09878 33.4096 5.05213 34.0846L7.04737 34.2225C7.09448 33.5409 7.13754 32.8689 7.17671 32.2065L5.1802 32.0885ZM4.90453 36.08C4.85284 36.7362 4.79739 37.4011 4.73804 38.0745L6.73032 38.25C6.79021 37.5704 6.84618 36.8994 6.89836 36.2369L4.90453 36.08ZM4.55321 40.0687C4.48935 40.7256 4.42182 41.3901 4.35051 42.0625L6.33935 42.2735C6.41128 41.5954 6.4794 40.9248 6.54382 40.2621L4.55321 40.0687ZM4.13064 44.0543C4.0556 44.7086 3.97701 45.3699 3.89477 46.0381L5.87979 46.2824C5.96271 45.6087 6.04194 44.942 6.11761 44.2822L4.13064 44.0543Z" fill="#23FA4B"/>
</g>
<defs>
<clipPath id="clip0_4509_1182">
<rect width="12" height="50" fill="white"/>
</clipPath>
</defs>
</svg>
