<svg width="12" height="49" viewBox="0 0 12 49" fill="none" xmlns="http://www.w3.org/2000/svg">
<g clip-path="url(#clip0_4509_1186)">
<path d="M4.5001 48.5092L11.5444 39.3598L0.0986328 37.834L4.5001 48.5092ZM3.54529 0.806345C3.62687 1.06843 3.71195 1.37201 3.79899 1.71775L5.73847 1.22948C5.644 0.854228 5.54915 0.514669 5.45491 0.211914L3.54529 0.806345ZM4.21019 3.62054C4.32048 4.20863 4.42945 4.85805 4.53453 5.5685L6.51301 5.27587C6.40449 4.54219 6.29134 3.86732 6.17592 3.25187L4.21019 3.62054ZM4.79491 7.53253C4.86872 8.15575 4.93894 8.81412 5.00444 9.50746L6.99558 9.31935C6.92864 8.61083 6.85676 7.93674 6.78102 7.29728L4.79491 7.53253ZM5.1706 11.4858C5.21798 12.1261 5.26124 12.7913 5.29972 13.4812L7.29661 13.3698C7.25748 12.6681 7.21343 11.9908 7.16515 11.3382L5.1706 11.4858ZM5.39394 15.4657C5.41944 16.1121 5.44075 16.7774 5.45743 17.4617L7.45684 17.4129C7.43992 16.7188 7.41828 16.0434 7.39239 15.3869L5.39394 15.4657ZM5.49204 19.4633C5.49876 20.1122 5.50137 20.7763 5.49953 21.4556L7.49952 21.461C7.50138 20.7731 7.49874 20.1002 7.49193 19.4426L5.49204 19.4633ZM5.48167 23.4514C5.47183 24.1043 5.45794 24.7702 5.43973 25.4488L7.43901 25.5024C7.45743 24.816 7.47148 24.1424 7.48144 23.4815L5.48167 23.4514ZM5.37485 27.4468C5.34994 28.1016 5.32107 28.7675 5.28804 29.4445L7.28566 29.542C7.31904 28.8579 7.34822 28.1848 7.37341 27.5228L5.37485 27.4468ZM5.1802 31.4415C5.14142 32.0972 5.09878 32.7626 5.05213 33.4377L7.04737 33.5756C7.09448 32.8939 7.13754 32.2219 7.17671 31.5596L5.1802 31.4415ZM4.90453 35.433C4.85284 36.0892 4.79739 36.7541 4.73804 37.4276L6.73032 37.6031C6.79021 36.9235 6.84618 36.2525 6.89836 35.59L4.90453 35.433ZM4.55321 39.4216C4.48935 40.0785 4.42182 40.7432 4.35051 41.4156L6.33935 41.6266C6.41128 40.9484 6.4794 40.2779 6.54382 39.6152L4.55321 39.4216ZM4.13064 43.4072C4.0556 44.0615 3.97701 44.7229 3.89477 45.3912L5.87979 45.6355C5.96271 44.9618 6.04194 44.295 6.11761 43.6352L4.13064 43.4072Z" fill="#23FA4B"/>
</g>
<defs>
<clipPath id="clip0_4509_1186">
<rect width="12" height="49" fill="white"/>
</clipPath>
</defs>
</svg>
