<svg width="444" height="300" viewBox="0 0 444 300" fill="none" xmlns="http://www.w3.org/2000/svg">
<path d="M369.943 65.0583C313.327 29.3207 238.455 46.2468 202.718 102.863L182.683 134.595C173.224 149.582 151.208 149.106 142.406 133.719C135.275 121.215 124.561 110.629 110.765 103.632C73.2697 84.6122 27.4534 99.5941 8.43361 137.089C-10.5862 174.584 4.39573 220.4 41.8905 239.42L126.318 282.245C135.035 286.625 145.14 289.226 155.561 289.199L180.023 289.135L305.545 288.804C345.331 288.393 384.92 268.433 407.737 232.284C443.486 175.668 426.559 100.801 369.943 65.0583Z" fill="url(#paint0_linear_4512_1601)" fill-opacity="0.32"/>
<path d="M251.53 182.479H246.702V191.008H251.53V182.479Z" fill="#CFFAFE" stroke="#23FA4B" stroke-width="1.60234" stroke-miterlimit="10"/>
<path d="M252.54 206.572C256.366 206.572 259.467 203.471 259.467 199.645C259.467 195.819 256.366 192.718 252.54 192.718C248.714 192.718 245.612 195.819 245.612 199.645C245.612 203.471 248.714 206.572 252.54 206.572Z" fill="#23FA4B"/>
<path d="M248.929 245.387C247.076 245.387 245.575 243.886 245.575 242.033V189.396H252.289V242.033C252.289 243.886 250.788 245.387 248.929 245.387Z" fill="#CFFAFE" stroke="#23FA4B" stroke-width="1.60234" stroke-miterlimit="10"/>
<path d="M248.929 185.283C262.209 185.283 272.975 174.517 272.975 161.237C272.975 147.957 262.209 137.191 248.929 137.191C235.649 137.191 224.883 147.957 224.883 161.237C224.883 174.517 235.649 185.283 248.929 185.283Z" fill="#CFFAFE" stroke="#23FA4B" stroke-width="1.60234" stroke-miterlimit="10"/>
<path d="M248.929 180.828C259.749 180.828 268.52 172.057 268.52 161.237C268.52 150.417 259.749 141.646 248.929 141.646C238.109 141.646 229.338 150.417 229.338 161.237C229.338 172.057 238.109 180.828 248.929 180.828Z" fill="#136723" stroke="#23FA4B" stroke-width="1.60234" stroke-miterlimit="10"/>
<path d="M275.448 162.135C275.448 162.135 270.865 163.951 269.909 168.438C269.268 171.455 279.555 183.622 279.555 183.622L275.448 162.135Z" fill="#9CA3AF"/>
<path d="M307.025 162.017C307.025 162.017 311.821 163.95 312.777 168.437C313.418 171.454 303.131 183.622 303.131 183.622L307.025 162.017Z" fill="#23FA4B"/>
<path d="M273.028 161.707V171.978C273.028 173.762 273.344 176.251 274.316 178.782C274.348 178.873 274.385 178.969 274.422 179.06C276.335 183.83 280.618 188.647 289.559 188.995C289.73 189.005 289.901 189.005 290.083 189.005C290.264 189.011 290.441 189.005 290.611 188.995C299.558 188.647 303.847 183.824 305.759 179.049C306.806 176.432 307.148 173.826 307.148 171.978V161.701C307.148 154.48 302.757 147.846 295.947 145.422C294.142 144.775 292.208 144.423 290.222 144.407C288.203 144.391 286.242 144.727 284.405 145.358C280.367 146.752 277.157 149.62 275.186 153.23C273.798 155.778 273.028 158.689 273.028 161.707Z" fill="#23FA4B"/>
<path d="M273.028 161.707V171.978C273.028 173.762 273.343 176.251 274.316 178.783C275.181 179.119 276.121 179.306 277.104 179.306H291.263C295.52 179.306 298.97 175.856 298.97 171.599V160.703C298.97 156.446 295.52 152.996 291.263 152.996H277.104C276.441 152.996 275.8 153.081 275.186 153.236C273.797 155.779 273.028 158.69 273.028 161.707Z" fill="#CFFAFE"/>
<path d="M288.432 172.608C288.021 172.956 286.226 174.382 283.593 174.264C281.355 174.163 279.86 173.004 279.39 172.608" stroke="#083344" stroke-width="1.60234" stroke-miterlimit="10" stroke-linecap="round" stroke-linejoin="round"/>
<path d="M276.292 257.351C277.926 260.801 280.26 262.959 282.541 264.305C286.381 266.58 290.083 266.58 290.083 266.58V266.457L290.099 266.58C290.099 266.58 299.515 266.58 303.89 257.351C306.314 252.239 315.426 214.632 314.283 205.082C313.135 195.538 302.442 191.078 290.088 191.078C288.171 191.078 286.29 191.185 284.474 191.398C274.641 192.584 266.859 197.023 265.893 205.082C264.755 214.632 273.862 252.239 276.292 257.351Z" fill="#23FA4B"/>
<path d="M307.142 204.564L300.583 247.096C300.583 247.096 299.248 257.153 295.237 260.977" stroke="#083344" stroke-width="1.60234" stroke-miterlimit="10" stroke-linecap="round" stroke-linejoin="round"/>
<path d="M290.809 168.981C292.709 168.981 294.249 167.441 294.249 165.542C294.249 163.642 292.709 162.102 290.809 162.102C288.909 162.102 287.369 163.642 287.369 165.542C287.369 167.441 288.909 168.981 290.809 168.981Z" stroke="#083344" stroke-width="1.60234" stroke-miterlimit="10" stroke-linecap="round" stroke-linejoin="round"/>
<path d="M276.751 168.981C278.651 168.981 280.191 167.441 280.191 165.542C280.191 163.642 278.651 162.102 276.751 162.102C274.851 162.102 273.311 163.642 273.311 165.542C273.311 167.441 274.851 168.981 276.751 168.981Z" stroke="#083344" stroke-width="1.60234" stroke-miterlimit="10" stroke-linecap="round" stroke-linejoin="round"/>
<path d="M307.142 161.701C307.142 161.701 306.261 144.407 290.222 144.407" stroke="#083344" stroke-width="1.60234" stroke-miterlimit="10" stroke-linecap="round" stroke-linejoin="round"/>
<path d="M275 179.301H293.127C296.358 179.301 298.981 176.684 298.981 173.447V160.239C298.981 156.04 295.579 152.633 291.375 152.633L275.891 153" stroke="#083344" stroke-width="1.60234" stroke-miterlimit="10" stroke-linecap="round" stroke-linejoin="round"/>
<path d="M252.775 225.961C256.601 225.961 259.702 222.859 259.702 219.033C259.702 215.207 256.601 212.106 252.775 212.106C248.949 212.106 245.847 215.207 245.847 219.033C245.847 222.859 248.949 225.961 252.775 225.961Z" fill="#23FA4B"/>
<path d="M251.675 212.87C251.675 212.87 248.774 210.071 247.375 210.669C245.976 211.267 248.272 215.668 248.272 215.668L248.075 217.265C248.075 217.265 244.127 214.819 243.177 216.566C242.173 218.414 247.076 221.362 247.076 221.362L251.675 212.87Z" fill="#23FA4B"/>
<path d="M254.724 197.675C254.724 197.675 250.174 199.298 250.815 201.317C251.626 203.865 256.134 201.931 256.134 201.931" stroke="#083344" stroke-width="1.60234" stroke-miterlimit="10" stroke-linecap="round" stroke-linejoin="round"/>
<path d="M101.556 298.974H45.1807L73.3712 279.057L101.556 298.974Z" fill="#9CA3AF"/>
<path d="M73.4033 280.99L92.0759 298.349" stroke="white" stroke-width="1.06823" stroke-miterlimit="10" stroke-linecap="round"/>
<path d="M76.1059 208.868H70.6313V280.984H76.1059V208.868Z" fill="#1F2937"/>
<path d="M92.1238 211.854H54.6184C51.8944 211.854 49.6885 209.648 49.6885 206.924V198.865C49.6885 196.141 51.8944 193.935 54.6184 193.935H92.1238C94.8478 193.935 97.0537 196.141 97.0537 198.865V206.924C97.0537 209.648 94.8425 211.854 92.1238 211.854Z" fill="#136723"/>
<path d="M55.505 263.38H91.2319C91.9904 263.38 92.5992 262.766 92.5992 262.013C92.5992 261.254 91.985 260.646 91.2319 260.646H55.505C54.7466 260.646 54.1377 261.26 54.1377 262.013C54.1377 262.766 54.7466 263.38 55.505 263.38Z" fill="#9CA3AF"/>
<path d="M381.251 123.944H190.572C187.057 123.944 184.205 121.092 184.205 117.578V7.66253C184.205 4.14807 187.057 1.2959 190.572 1.2959H381.251C384.765 1.2959 387.617 4.14807 387.617 7.66253V117.572C387.617 121.092 384.77 123.944 381.251 123.944Z" fill="#9FEFAE" stroke="#136723" stroke-width="1.60234" stroke-miterlimit="10"/>
<path d="M407.337 140.982H341.78C338.644 140.982 336.102 138.44 336.102 135.305V107.83C336.102 104.695 338.644 102.152 341.78 102.152H407.337C410.472 102.152 413.014 104.695 413.014 107.83V135.305C413.014 138.44 410.472 140.982 407.337 140.982Z" fill="#9FEFAE" stroke="#136723" stroke-width="1.60234" stroke-miterlimit="10"/>
<path d="M347.591 114.613H382.057C383.569 114.613 384.797 113.385 384.797 111.873V111.457C384.797 109.945 383.569 108.717 382.057 108.717H347.591C346.079 108.717 344.851 109.945 344.851 111.457V111.873C344.851 113.385 346.079 114.613 347.591 114.613Z" fill="#095C19"/>
<path d="M391.228 114.613H401.194C402.706 114.613 403.934 113.385 403.934 111.873V111.457C403.934 109.945 402.706 108.717 401.194 108.717H391.228C389.716 108.717 388.488 109.945 388.488 111.457V111.873C388.488 113.385 389.716 114.613 391.228 114.613Z" stroke="#136723" stroke-width="1.60234" stroke-miterlimit="10"/>
<path d="M347.591 134.413H401.526C403.037 134.413 404.266 133.184 404.266 131.673V131.256C404.266 129.745 403.037 128.516 401.526 128.516H347.591C346.079 128.516 344.851 129.745 344.851 131.256V131.673C344.851 133.19 346.079 134.413 347.591 134.413Z" stroke="#136723" stroke-width="1.60234" stroke-miterlimit="10"/>
<path d="M368.421 124.516H401.52C403.032 124.516 404.26 123.287 404.26 121.776V121.359C404.26 119.847 403.032 118.619 401.52 118.619H368.421C366.91 118.619 365.681 119.847 365.681 121.359V121.776C365.686 123.287 366.91 124.516 368.421 124.516Z" fill="#095C19"/>
<path d="M347.591 124.516H360.58C362.092 124.516 363.32 123.287 363.32 121.776V121.359C363.32 119.847 362.092 118.619 360.58 118.619H347.591C346.079 118.619 344.851 119.847 344.851 121.359V121.776C344.851 123.287 346.079 124.516 347.591 124.516Z" fill="#095C19"/>
<path d="M387.617 14.0664H184.205V7.72114C184.205 4.11053 187.132 1.18359 190.743 1.18359H381.08C384.69 1.18359 387.617 4.11053 387.617 7.72114V14.0664Z" fill="#72F58A"/>
<path d="M192.463 10.189C193.879 10.189 195.026 9.04119 195.026 7.62527C195.026 6.20935 193.879 5.06152 192.463 5.06152C191.047 5.06152 189.899 6.20935 189.899 7.62527C189.899 9.04119 191.047 10.189 192.463 10.189Z" fill="#23FA4B"/>
<path d="M200.207 10.189C201.623 10.189 202.771 9.04119 202.771 7.62527C202.771 6.20935 201.623 5.06152 200.207 5.06152C198.791 5.06152 197.644 6.20935 197.644 7.62527C197.644 9.04119 198.791 10.189 200.207 10.189Z" fill="#23FA4B"/>
<path d="M207.957 10.189C209.373 10.189 210.521 9.04119 210.521 7.62527C210.521 6.20935 209.373 5.06152 207.957 5.06152C206.541 5.06152 205.394 6.20935 205.394 7.62527C205.394 9.04119 206.541 10.189 207.957 10.189Z" fill="#23FA4B"/>
<path d="M125.01 76.2213L121.864 82.1714L120.149 75.8101L125.01 76.2213Z" fill="#1F2937"/>
<path d="M126.922 91.7163C126.617 93.2599 122.921 93.6658 122.921 93.6658C122.921 93.6658 122.916 93.7513 122.9 93.9062C122.862 94.3121 122.745 95.1774 122.451 96.2296C121.799 98.5476 120.267 101.811 116.709 103.13C115.508 103.584 114.071 103.814 112.362 103.712C112.057 103.696 111.747 103.664 111.422 103.627L104.142 107.83L96.6479 102.286C96.6479 102.286 100.958 97.8746 100.755 95.5138C100.552 93.1531 95.772 87.3953 97.7803 79.0952C99.8366 70.6081 104.654 68.6266 109.787 68.2153C116.127 67.7079 124.561 71.7084 123.434 88.2285C123.434 88.2285 127.231 90.178 126.922 91.7163Z" fill="#FFC17C"/>
<path d="M100.398 94.2473L93.2353 79.4844C93.2353 79.4844 92.0175 74.2821 96.6643 73.3261C96.6643 73.3261 97.5455 66.6229 101.856 66.7565C106.166 66.8953 120.672 66.7565 120.672 66.7565C120.672 66.7565 122.985 58.0077 127.269 59.9358C131.125 61.6717 126.548 67.2585 126.548 67.2585C126.548 67.2585 130.548 66.6443 131.643 69.379C133.197 73.262 129.453 76.9046 122.184 77.2197H113.446C113.446 77.2197 114.402 82.0375 109.75 85.7816L100.398 94.2473Z" fill="#1F2937"/>
<path d="M118.525 87.9029C119.148 87.9029 119.652 87.3983 119.652 86.7759C119.652 86.1535 119.148 85.6489 118.525 85.6489C117.903 85.6489 117.398 86.1535 117.398 86.7759C117.398 87.3983 117.903 87.9029 118.525 87.9029Z" fill="#1F2937"/>
<path d="M116.709 103.13C115.508 103.584 114.071 103.814 112.362 103.712C109.435 100.214 107.747 95.7327 107.747 91.0752V82.2944H111.272V91.0752C111.272 93.0247 111.63 94.9315 112.308 96.7208C112.597 97.4846 112.938 98.2217 113.334 98.9374C114.215 100.507 115.353 101.934 116.709 103.13Z" fill="#1F2937"/>
<path d="M122.9 93.906C122.862 94.3119 122.745 95.1772 122.451 96.2294C120.411 96.0264 116.469 96.0905 113.328 98.932C113.254 98.9907 113.174 99.0602 113.104 99.1296L111.486 97.4311C111.747 97.1747 112.025 96.9397 112.303 96.7154C116.122 93.6175 120.608 93.6336 122.9 93.906Z" fill="#1F2937"/>
<path d="M105.37 91.8551C105.37 91.8551 98.6989 86.076 103.389 82.8927C108.238 79.6025 109.958 87.1709 109.958 87.1709L105.37 91.8551Z" fill="#FFC17C"/>
<path d="M116.715 98.1309C116.715 98.1309 117.227 99.5142 119.177 99.5142" stroke="#1F2937" stroke-width="1.06823" stroke-miterlimit="10" stroke-linecap="round" stroke-linejoin="round"/>
<path d="M105.028 91.3046C105.028 91.3046 100.28 88.7355 102.155 84.8044C103.559 81.8614 107.037 82.1819 108.313 83.6774C109.456 85.0127 110.092 86.9943 110.092 86.9943" stroke="#1F2937" stroke-width="1.06823" stroke-miterlimit="10" stroke-linecap="round" stroke-linejoin="round"/>
<path d="M123.434 88.2285C123.434 88.2285 127.279 90.4824 126.922 91.7162C126.564 92.95 122.766 93.5162 122.766 93.5162" stroke="#1F2937" stroke-width="1.06823" stroke-miterlimit="10" stroke-linecap="round" stroke-linejoin="round"/>
<path d="M123.279 78.6627V80.6229L128.321 80.5321C128.321 80.5321 128.23 86.3166 132.615 91.5455H140.178L135.884 77.8241L127.952 77.7334L123.279 78.6627Z" fill="#FFC17C"/>
<path d="M93.9772 248.073C92.6259 250.733 91.766 253.612 91.4455 256.576L90.9702 261.02L114.188 262.056L114.023 260.363C113.846 258.579 112.693 257.041 111.026 256.384L104.804 253.916L105.034 248.714C105.071 247.881 104.425 247.175 103.591 247.138L100.718 247.01C99.9005 246.973 99.2062 247.592 99.1421 248.404C99.1475 248.399 93.7849 248.249 93.9772 248.073Z" fill="#E5E7EB"/>
<path d="M92.4927 258.375L111.609 259.23" stroke="#1F2937" stroke-width="1.06823" stroke-miterlimit="10" stroke-linecap="round" stroke-linejoin="round"/>
<path d="M56.3224 158.341C56.3224 158.341 49.6033 179.498 55.0779 187.215C60.5526 194.933 97.6415 202.4 97.6415 202.4L83.9521 249.445L95.4035 251.683L117.697 197.54C118.867 194.698 117.569 191.446 114.765 190.191L84.2032 176.512L82.7076 166.556L56.3224 158.341Z" fill="#1F2937"/>
<path d="M91.4191 170.29L129.475 189.32C132.882 191.024 134.18 195.222 132.327 198.55L102.368 252.431L92.4126 248.949L111.577 198.918L62.2993 182.735L64.2915 161.082L91.4191 170.29Z" fill="#1F2937"/>
<path d="M140.173 91.5397L132.209 91.2886L128.695 117.952L107.507 109.956L108.922 107.088L97.9995 98.4992L95.142 101.223L86.719 101.522C86.719 101.522 85.0098 101.8 83.3915 102.489L51.4675 117.017L51.3286 153.134L60.2911 150.271L62.7159 124.014L74.6748 121.135C74.6748 121.135 65.1622 136.737 62.732 144.177C60.3017 151.617 58.0478 161.349 58.0478 161.349L93.7052 171.988C93.7052 171.988 97.3639 168.837 97.2517 167.133C97.1396 165.429 93.9562 162.369 93.9562 162.369L106.102 122.743L132.06 130.632C135.302 131.614 138.597 129.275 138.736 125.894L140.173 91.5397Z" fill="#E5E7EB"/>
<path d="M304.157 100.241H158.616C155.101 100.241 152.249 97.3884 152.249 93.8739V35.0893C152.249 31.5748 155.101 28.7227 158.616 28.7227H304.157C307.671 28.7227 310.523 31.5748 310.523 35.0893V93.8685C310.523 97.3884 307.671 100.241 304.157 100.241Z" fill="#374151"/>
<path d="M104.596 109.582C108.206 111.761 107.71 115.709 107.71 115.709C107.811 116.82 106.038 123.229 103.736 130.968C103.608 131.406 103.474 131.844 103.34 132.287C103.239 132.624 103.138 132.966 103.036 133.308C102.267 135.866 101.455 138.526 100.643 141.148C100.478 141.677 100.317 142.201 100.157 142.719C99.7835 143.931 99.4096 145.133 99.0411 146.313C98.9396 146.644 98.8328 146.981 98.7313 147.312C98.6245 147.643 98.523 147.969 98.4215 148.295C98.32 148.621 98.2185 148.946 98.1171 149.267C97.834 150.175 97.5562 151.056 97.2892 151.911C97.129 152.408 96.9794 152.894 96.8298 153.364C96.6856 153.812 96.5468 154.25 96.4132 154.672C96.3598 154.848 96.3064 155.019 96.2477 155.19C96.1675 155.452 96.0874 155.703 96.0073 155.954C95.9432 156.157 95.8791 156.355 95.8204 156.547C95.7776 156.67 95.7403 156.793 95.7029 156.91C95.6655 157.028 95.6281 157.145 95.5907 157.263C95.5106 157.514 95.4305 157.759 95.3557 158C95.2969 158.197 95.2328 158.39 95.1741 158.582C94.5812 160.435 94.1593 161.749 93.9884 162.294C93.9777 162.321 93.967 162.347 93.9617 162.374C93.9189 162.502 93.8976 162.566 93.8976 162.566C93.8976 162.566 96.9741 165.461 97.2571 167.138C97.5349 168.821 93.7106 171.993 93.7106 171.993L58.0532 161.354C58.2027 160.43 58.3736 159.517 58.5552 158.609C58.6033 158.347 58.6621 158.08 58.7155 157.818C58.7796 157.514 58.8437 157.204 58.9131 156.899C58.9986 156.515 59.084 156.136 59.1748 155.751C59.2656 155.361 59.3618 154.966 59.4632 154.576C59.5701 154.133 59.6876 153.689 59.8051 153.251C59.9012 152.883 60.0027 152.514 60.1095 152.146C60.211 151.783 60.3125 151.419 60.4193 151.062C60.5582 150.597 60.697 150.132 60.8413 149.673C60.9481 149.32 61.0602 148.968 61.1777 148.621C61.5142 147.579 61.8668 146.548 62.2353 145.533C62.4009 145.079 62.5665 144.631 62.7374 144.182C63.1006 143.215 63.4798 142.265 63.8697 141.325C64.0086 140.983 64.1528 140.641 64.297 140.304C64.5801 139.642 64.8631 138.985 65.1569 138.339C65.3065 138.002 65.456 137.671 65.6109 137.34C65.7498 137.041 65.8886 136.747 66.0275 136.454C66.2198 136.037 66.4174 135.631 66.615 135.225C66.8126 134.819 67.0103 134.413 67.2132 134.018C68.4097 131.62 69.6595 129.344 70.92 127.192C71.1283 126.834 71.3419 126.476 71.5502 126.124C72.0203 125.333 72.4903 124.559 72.9656 123.811C73.3342 123.224 73.6974 122.647 74.0659 122.086C74.2689 121.765 74.4772 121.45 74.6801 121.14C74.6855 121.135 74.6855 121.13 74.6855 121.13H74.6908" stroke="#9CA3AF" stroke-width="2.13646" stroke-miterlimit="10" stroke-linecap="round" stroke-linejoin="round"/>
<path d="M60.2911 150.277L66.6364 156.248L67.5497 163.288C67.6299 163.918 67.2186 164.505 66.599 164.644C65.9581 164.788 65.3171 164.399 65.1462 163.763L63.8964 159.111L63.2661 161.723C63.1166 162.337 62.6412 162.818 62.027 162.978L56.6752 164.34L52.3115 162.267C51.975 162.107 51.8468 161.701 52.0231 161.375C52.2741 160.916 52.7922 160.676 53.3049 160.777L54.3091 160.98L51.5797 156.969C50.8053 155.831 50.7091 154.368 51.3234 153.139L60.2911 150.277Z" fill="#FFC17C"/>
<path d="M85.4318 118.545L62.7213 124.019L60.2964 150.276L51.334 153.139V122.193C51.334 118.737 53.5078 115.65 56.7606 114.485L84.1126 102.185C85.074 101.752 86.1155 101.512 87.1677 101.48L95.142 101.229" stroke="#9CA3AF" stroke-width="2.13646" stroke-miterlimit="10" stroke-linecap="round" stroke-linejoin="round"/>
<path d="M95.147 101.229L98.0045 98.5044L105.221 104.23L100.365 109.705L95.147 101.229Z" stroke="#9CA3AF" stroke-width="2.13646" stroke-miterlimit="10" stroke-linecap="round" stroke-linejoin="round"/>
<path d="M107.523 105.539L108.922 107.093L106.962 110.95" stroke="#9CA3AF" stroke-width="2.13646" stroke-miterlimit="10" stroke-linecap="round" stroke-linejoin="round"/>
<path d="M83.274 247.266C81.2123 249.424 79.5619 251.934 78.4082 254.685L76.6724 258.803L98.6138 266.468L98.9396 264.796C99.2868 263.038 98.6191 261.233 97.2144 260.122L91.9641 255.967L93.6839 251.048C93.9616 250.263 93.545 249.397 92.7545 249.125L90.0412 248.174C89.2721 247.907 88.4282 248.297 88.1345 249.055C88.1291 249.061 83.0337 247.378 83.274 247.266Z" fill="#E5E7EB"/>
<path d="M78.8833 256.709L96.9471 263.017" stroke="#1F2937" stroke-width="1.06823" stroke-miterlimit="10" stroke-linecap="round" stroke-linejoin="round"/>
<path d="M108.094 110.175L128.69 117.952L132.423 91.2573L140.168 91.535L139.003 125.932C138.886 129.43 135.467 131.86 132.124 130.824L106.599 122.62" stroke="#9CA3AF" stroke-width="2.13646" stroke-miterlimit="10" stroke-linecap="round" stroke-linejoin="round"/>
<path d="M132.428 91.2622L126.019 84.9169L126.825 81.6802H132.241C132.615 81.6802 132.92 81.9846 132.92 82.3585C132.92 82.9407 132.514 83.4481 131.942 83.5709L129.747 84.0463C129.747 84.0463 133.043 83.6083 136.156 88.0308" fill="#FFC17C"/>
<path d="M128.882 81.6162H132.882C133.149 81.6162 133.363 81.8298 133.363 82.0969V82.2518C133.363 82.615 133.128 82.9408 132.781 83.0529L129.752 84.0464C129.752 84.0464 133.86 84.2333 136.039 87.8439" stroke="#1F2937" stroke-width="0.534114" stroke-miterlimit="10" stroke-linecap="round" stroke-linejoin="round"/>
<path d="M198.269 47.5184H168.647C167.274 47.5184 166.158 46.4021 166.158 45.0295C166.158 43.6568 167.274 42.5405 168.647 42.5405H198.269C199.641 42.5405 200.757 43.6568 200.757 45.0295C200.757 46.4075 199.641 47.5184 198.269 47.5184Z" fill="#6B7280"/>
<path d="M261.518 47.4487H206.28C204.908 47.4487 203.791 46.3324 203.791 44.9597C203.791 43.587 204.908 42.4707 206.28 42.4707H261.524C262.896 42.4707 264.013 43.587 264.013 44.9597C264.007 46.3324 262.896 47.4487 261.518 47.4487Z" fill="#23FA4B"/>
<path d="M188.713 55.1132H174.249C172.877 55.1132 171.76 53.9969 171.76 52.6242C171.76 51.2516 172.877 50.1353 174.249 50.1353H188.713C190.086 50.1353 191.202 51.2516 191.202 52.6242C191.202 53.9969 190.086 55.1132 188.713 55.1132Z" fill="#6B7280"/>
<path d="M188.713 62.9169H182.058C180.685 62.9169 179.569 61.8006 179.569 60.4279C179.569 59.0553 180.685 57.939 182.058 57.939H188.713C190.086 57.939 191.202 59.0553 191.202 60.4279C191.202 61.8006 190.086 62.9169 188.713 62.9169Z" fill="#6B7280"/>
<path d="M272.526 55.1132H198.333C196.96 55.1132 195.844 53.9969 195.844 52.6242C195.844 51.2516 196.96 50.1353 198.333 50.1353H272.526C273.899 50.1353 275.015 51.2516 275.015 52.6242C275.015 53.9969 273.899 55.1132 272.526 55.1132Z" fill="#23FA4B"/>
<path d="M272.526 62.703H198.333C196.96 62.703 195.844 61.5867 195.844 60.2141C195.844 58.8414 196.96 57.7251 198.333 57.7251H272.526C273.899 57.7251 275.015 58.8414 275.015 60.2141C275.015 61.5867 273.899 62.703 272.526 62.703Z" fill="#23FA4B"/>
<path d="M198.269 71.0942H168.647C167.274 71.0942 166.158 69.9779 166.158 68.6052C166.158 67.2325 167.274 66.1162 168.647 66.1162H198.269C199.641 66.1162 200.757 67.2325 200.757 68.6052C200.757 69.9779 199.641 71.0942 198.269 71.0942Z" fill="#6B7280"/>
<path d="M294.121 71.0244H206.28C204.908 71.0244 203.791 69.9081 203.791 68.5354C203.791 67.1627 204.908 66.0464 206.28 66.0464H294.126C295.499 66.0464 296.615 67.1627 296.615 68.5354C296.61 69.9081 295.493 71.0244 294.121 71.0244Z" fill="#23FA4B"/>
<path d="M188.713 78.6835H174.249C172.877 78.6835 171.76 77.5672 171.76 76.1945C171.76 74.8219 172.877 73.7056 174.249 73.7056H188.713C190.086 73.7056 191.202 74.8219 191.202 76.1945C191.202 77.5726 190.086 78.6835 188.713 78.6835Z" fill="#6B7280"/>
<path d="M188.713 86.4926H182.058C180.685 86.4926 179.569 85.3763 179.569 84.0036C179.569 82.6309 180.685 81.5146 182.058 81.5146H188.713C190.086 81.5146 191.202 82.6309 191.202 84.0036C191.202 85.3763 190.086 86.4926 188.713 86.4926Z" fill="#6B7280"/>
<path d="M282.792 78.6835H198.333C196.96 78.6835 195.844 77.5672 195.844 76.1945C195.844 74.8219 196.96 73.7056 198.333 73.7056H282.792C284.165 73.7056 285.281 74.8219 285.281 76.1945C285.281 77.5726 284.165 78.6835 282.792 78.6835Z" fill="#23FA4B"/>
<path d="M272.526 86.2787H198.333C196.96 86.2787 195.844 85.1624 195.844 83.7898C195.844 82.4171 196.96 81.3008 198.333 81.3008H272.526C273.899 81.3008 275.015 82.4171 275.015 83.7898C275.015 85.1624 273.899 86.2787 272.526 86.2787Z" fill="#23FA4B"/>
<path d="M90.6123 179.001L114.797 190.244C117.665 191.579 118.985 194.928 117.788 197.861L97.5238 247.512" stroke="#4B5563" stroke-width="1.06823" stroke-miterlimit="10" stroke-linecap="round"/>
<path d="M326.947 85.4725C326.947 85.4725 333.047 41.6004 343.686 41.6004C353.765 41.6004 352.708 57.1592 359.432 57.1592C367.15 57.1592 367.177 24.3058 380.156 24.3058C391.356 24.3058 390.266 45.2431 394.999 45.2431C399.731 45.2431 399.384 23.5581 408.533 23.5581C418.521 23.5581 416.123 50.002 420.855 50.002C425.587 50.002 425.865 39.5494 432.52 39.5494C441.541 39.5494 443.817 85.2856 443.817 85.2856L326.947 85.4725Z" fill="#374151"/>
<path d="M329.377 85.4724C329.377 85.4724 334.793 57.4688 343.937 57.4688C354.016 57.4688 352.713 75.4524 359.432 75.4524C367.15 75.4524 367.177 42.5991 380.156 42.5991C391.639 42.5991 390.111 58.7774 394.844 58.7774C399.576 58.7774 399.571 45.056 407.695 45.056C417.682 45.056 416.128 68.2953 420.855 68.2953C425.582 68.2953 424.856 52.5496 432.178 52.5496C438.865 52.5496 443.443 85.403 443.443 85.403L329.377 85.4724Z" fill="url(#paint1_linear_4512_1601)"/>
<defs>
<linearGradient id="paint0_linear_4512_1601" x1="136.541" y1="-25.7892" x2="240.426" y2="289.071" gradientUnits="userSpaceOnUse">
<stop stop-color="#23FA4B"/>
<stop offset="1" stop-color="#9FEFAE" stop-opacity="0"/>
</linearGradient>
<linearGradient id="paint1_linear_4512_1601" x1="365.863" y1="29.8684" x2="378.672" y2="88.7123" gradientUnits="userSpaceOnUse">
<stop stop-color="#23FA4B"/>
<stop offset="1" stop-color="#9FEFAE" stop-opacity="0"/>
</linearGradient>
</defs>
</svg>
