<svg width="3302" height="2957" viewBox="0 0 3302 2957" fill="none" xmlns="http://www.w3.org/2000/svg">
<path d="M2751.24 641.258C2330.19 289.004 1773.37 455.839 1507.6 1013.89L1358.6 1326.66C1288.26 1474.38 1124.52 1469.69 1059.06 1318.02C1006.03 1194.78 926.352 1090.43 823.752 1021.47C544.904 833.994 204.171 981.666 62.7215 1351.24C-78.7274 1720.82 32.6921 2172.41 311.539 2359.88L939.419 2781.99C1004.25 2825.17 1079.4 2850.8 1156.9 2850.54L1338.82 2849.91L2272.32 2846.64C2568.2 2842.59 2862.63 2645.85 3032.31 2289.55C3298.18 1731.5 3172.29 993.562 2751.24 641.258Z" fill="url(#paint0_linear_4509_1082)" fill-opacity="0.32"/>
<path d="M1870.61 1798.63H1834.71V1882.7H1870.61V1798.63Z" fill="#9FEFAE" stroke="#23FA4B" stroke-width="1.60234" stroke-miterlimit="10"/>
<path d="M1878.12 2036.11C1906.58 2036.11 1929.64 2005.55 1929.64 1967.83C1929.64 1930.12 1906.58 1899.56 1878.12 1899.56C1849.67 1899.56 1826.6 1930.12 1826.6 1967.83C1826.6 2005.55 1849.67 2036.11 1878.12 2036.11Z" fill="#23FA4B"/>
<path d="M1851.27 2418.7C1837.49 2418.7 1826.33 2403.9 1826.33 2385.64V1866.81H1876.26V2385.64C1876.26 2403.9 1865.09 2418.7 1851.27 2418.7Z" fill="#9FEFAE" stroke="#23FA4B" stroke-width="1.60234" stroke-miterlimit="10"/>
<path d="M1851.27 1826.27C1950.03 1826.27 2030.1 1720.16 2030.1 1589.26C2030.1 1458.36 1950.03 1352.25 1851.27 1352.25C1752.51 1352.25 1672.44 1458.36 1672.44 1589.26C1672.44 1720.16 1752.51 1826.27 1851.27 1826.27Z" fill="#9FEFAE" stroke="#23FA4B" stroke-width="1.60234" stroke-miterlimit="10"/>
<path d="M1851.27 1782.36C1931.74 1782.36 1996.97 1695.91 1996.97 1589.26C1996.97 1482.61 1931.74 1396.16 1851.27 1396.16C1770.8 1396.16 1705.57 1482.61 1705.57 1589.26C1705.57 1695.91 1770.8 1782.36 1851.27 1782.36Z" fill="#136723" stroke="#23FA4B" stroke-width="1.60234" stroke-miterlimit="10"/>
<path d="M2048.49 1598.11C2048.49 1598.11 2014.41 1616.01 2007.3 1660.24C2002.53 1689.97 2079.03 1809.9 2079.03 1809.9L2048.49 1598.11Z" fill="#ECEEED"/>
<path d="M2283.33 1596.95C2283.33 1596.95 2318.99 1616 2326.1 1660.23C2330.87 1689.96 2254.37 1809.9 2254.37 1809.9L2283.33 1596.95Z" fill="#23FA4B"/>
<path d="M2030.49 1593.89V1695.13C2030.49 1712.71 2032.84 1737.25 2040.07 1762.19C2040.31 1763.09 2040.58 1764.04 2040.86 1764.93C2055.09 1811.95 2086.94 1859.43 2153.43 1862.86C2154.7 1862.96 2155.98 1862.96 2157.33 1862.96C2158.68 1863.02 2159.99 1862.96 2161.26 1862.86C2227.79 1859.43 2259.69 1811.89 2273.91 1764.83C2281.7 1739.03 2284.24 1713.34 2284.24 1695.13V1593.83C2284.24 1522.66 2251.58 1457.27 2200.94 1433.38C2187.52 1427 2173.13 1423.53 2158.36 1423.37C2143.35 1423.21 2128.76 1426.53 2115.1 1432.75C2085.07 1446.49 2061.2 1474.75 2046.54 1510.34C2036.22 1535.45 2030.49 1564.14 2030.49 1593.89Z" fill="#23FA4B"/>
<path d="M2030.49 1593.89V1695.13C2030.49 1712.71 2032.83 1737.25 2040.07 1762.2C2046.5 1765.52 2053.49 1767.36 2060.81 1767.36H2166.1C2197.76 1767.36 2223.42 1733.35 2223.42 1691.39V1584C2223.42 1542.04 2197.76 1508.03 2166.1 1508.03H2060.81C2055.87 1508.03 2051.11 1508.87 2046.54 1510.4C2036.21 1535.46 2030.49 1564.15 2030.49 1593.89Z" fill="#9FEFAE"/>
<path d="M2145.05 1701.34C2141.99 1704.77 2128.64 1718.83 2109.06 1717.66C2092.42 1716.67 2081.3 1705.24 2077.81 1701.34" stroke="#095C19" stroke-width="1.60234" stroke-miterlimit="10" stroke-linecap="round" stroke-linejoin="round"/>
<path d="M2054.77 2536.62C2066.92 2570.63 2084.28 2591.9 2101.24 2605.17C2129.8 2627.59 2157.33 2627.59 2157.33 2627.59V2626.38L2157.45 2627.59C2157.45 2627.59 2227.47 2627.59 2260.01 2536.62C2278.04 2486.24 2345.8 2115.56 2337.3 2021.42C2328.77 1927.35 2249.24 1883.39 2157.37 1883.39C2143.11 1883.39 2129.12 1884.45 2115.62 1886.55C2042.49 1898.24 1984.61 1941.99 1977.43 2021.42C1968.97 2115.56 2036.69 2486.24 2054.77 2536.62Z" fill="#23FA4B"/>
<path d="M2284.2 2016.32L2235.42 2435.54C2235.42 2435.54 2225.49 2534.67 2195.66 2572.36" stroke="#095C19" stroke-width="1.60234" stroke-miterlimit="10" stroke-linecap="round" stroke-linejoin="round"/>
<path d="M2162.73 1665.59C2176.86 1665.59 2188.31 1650.41 2188.31 1631.69C2188.31 1612.96 2176.86 1597.79 2162.73 1597.79C2148.6 1597.79 2137.15 1612.96 2137.15 1631.69C2137.15 1650.41 2148.6 1665.59 2162.73 1665.59Z" stroke="#095C19" stroke-width="1.60234" stroke-miterlimit="10" stroke-linecap="round" stroke-linejoin="round"/>
<path d="M2058.18 1665.59C2072.31 1665.59 2083.76 1650.41 2083.76 1631.69C2083.76 1612.96 2072.31 1597.79 2058.18 1597.79C2044.05 1597.79 2032.6 1612.96 2032.6 1631.69C2032.6 1650.41 2044.05 1665.59 2058.18 1665.59Z" stroke="#095C19" stroke-width="1.60234" stroke-miterlimit="10" stroke-linecap="round" stroke-linejoin="round"/>
<path d="M2284.2 1593.83C2284.2 1593.83 2277.64 1423.37 2158.36 1423.37" stroke="#095C19" stroke-width="1.60234" stroke-miterlimit="10" stroke-linecap="round" stroke-linejoin="round"/>
<path d="M2045.16 1767.31H2179.97C2204 1767.31 2223.5 1741.52 2223.5 1709.61V1579.42C2223.5 1538.03 2198.2 1504.45 2166.94 1504.45L2051.78 1508.07" stroke="#095C19" stroke-width="1.60234" stroke-miterlimit="10" stroke-linecap="round" stroke-linejoin="round"/>
<path d="M1879.87 2227.22C1908.33 2227.22 1931.39 2196.65 1931.39 2158.94C1931.39 2121.22 1908.33 2090.66 1879.87 2090.66C1851.42 2090.66 1828.35 2121.22 1828.35 2158.94C1828.35 2196.65 1851.42 2227.22 1879.87 2227.22Z" fill="#23FA4B"/>
<path d="M1871.69 2098.19C1871.69 2098.19 1850.12 2070.6 1839.71 2076.49C1829.31 2082.39 1846.38 2125.77 1846.38 2125.77L1844.92 2141.51C1844.92 2141.51 1815.56 2117.4 1808.49 2134.62C1801.03 2152.83 1837.49 2181.89 1837.49 2181.89L1871.69 2098.19Z" fill="#23FA4B"/>
<path d="M1894.37 1948.42C1894.37 1948.42 1860.53 1964.41 1865.3 1984.31C1871.33 2009.43 1904.85 1990.37 1904.85 1990.37" stroke="#095C19" stroke-width="1.60234" stroke-miterlimit="10" stroke-linecap="round" stroke-linejoin="round"/>
<path d="M755.266 2946.89H336.007L545.658 2750.57L755.266 2946.89Z" fill="#ECEEED"/>
<path d="M545.896 2769.62L684.763 2940.73" stroke="white" stroke-width="1.06823" stroke-miterlimit="10" stroke-linecap="round"/>
<path d="M565.995 2058.74H525.281V2769.57H565.995V2058.74Z" fill="#095C19"/>
<path d="M685.12 2088.17H406.195C385.937 2088.17 369.532 2066.43 369.532 2039.58V1960.15C369.532 1933.3 385.937 1911.55 406.195 1911.55H685.12C705.379 1911.55 721.784 1933.3 721.784 1960.15V2039.58C721.784 2066.43 705.339 2088.17 685.12 2088.17Z" fill="#095C19"/>
<path d="M412.789 2596.05H678.487C684.128 2596.05 688.656 2590 688.656 2582.57C688.656 2575.09 684.088 2569.1 678.487 2569.1H412.789C407.148 2569.1 402.62 2575.15 402.62 2582.57C402.62 2590 407.148 2596.05 412.789 2596.05Z" fill="#ECEEED"/>
<path d="M2835.34 1221.67H1417.27C1391.13 1221.67 1369.92 1193.56 1369.92 1158.93V75.5269C1369.92 40.8861 1391.13 12.7732 1417.27 12.7732H2835.34C2861.47 12.7732 2882.68 40.8861 2882.68 75.5269V1158.87C2882.68 1193.56 2861.51 1221.67 2835.34 1221.67Z" fill="#095C19" stroke="#23FA4B" stroke-width="1.60234" stroke-miterlimit="10"/>
<path d="M3029.34 1389.61H2541.8C2518.47 1389.61 2499.57 1364.56 2499.57 1333.66V1062.84C2499.57 1031.94 2518.47 1006.88 2541.8 1006.88H3029.34C3052.65 1006.88 3071.56 1031.94 3071.56 1062.84V1333.66C3071.56 1364.56 3052.65 1389.61 3029.34 1389.61Z" fill="#095C19" stroke="#23FA4B" stroke-width="1.60234" stroke-miterlimit="10"/>
<path d="M2585.01 1129.7H2841.33C2852.58 1129.7 2861.71 1117.6 2861.71 1102.7V1098.59C2861.71 1083.69 2852.58 1071.59 2841.33 1071.59H2585.01C2573.77 1071.59 2564.64 1083.69 2564.64 1098.59V1102.7C2564.64 1117.6 2573.77 1129.7 2585.01 1129.7Z" fill="#095C19"/>
<path d="M2909.54 1129.7H2983.65C2994.9 1129.7 3004.03 1117.6 3004.03 1102.7V1098.59C3004.03 1083.69 2994.9 1071.59 2983.65 1071.59H2909.54C2898.29 1071.59 2889.16 1083.69 2889.16 1098.59V1102.7C2889.16 1117.6 2898.29 1129.7 2909.54 1129.7Z" stroke="#23FA4B" stroke-width="1.60234" stroke-miterlimit="10"/>
<path d="M2585.01 1324.86H2986.12C2997.36 1324.86 3006.5 1312.75 3006.5 1297.86V1293.75C3006.5 1278.85 2997.36 1266.74 2986.12 1266.74H2585.01C2573.77 1266.74 2564.64 1278.85 2564.64 1293.75V1297.86C2564.64 1312.81 2573.77 1324.86 2585.01 1324.86Z" stroke="#23FA4B" stroke-width="1.60234" stroke-miterlimit="10"/>
<path d="M2739.92 1227.31H2986.08C2997.32 1227.31 3006.46 1215.2 3006.46 1200.31V1196.2C3006.46 1181.29 2997.32 1169.19 2986.08 1169.19H2739.92C2728.69 1169.19 2719.55 1181.29 2719.55 1196.2V1200.31C2719.58 1215.2 2728.69 1227.31 2739.92 1227.31Z" fill="#095C19"/>
<path d="M2585.01 1227.31H2681.61C2692.86 1227.31 2701.99 1215.2 2701.99 1200.31V1196.2C2701.99 1181.29 2692.86 1169.19 2681.61 1169.19H2585.01C2573.77 1169.19 2564.64 1181.29 2564.64 1196.2V1200.31C2564.64 1215.2 2573.77 1227.31 2585.01 1227.31Z" fill="#095C19"/>
<path d="M2882.68 138.649H1369.92V76.1059C1369.92 40.5174 1391.69 11.6675 1418.54 11.6675H2834.07C2860.92 11.6675 2882.68 40.5174 2882.68 76.1059V138.649Z" fill="#23FA4B"/>
<path d="M1431.34 100.43C1441.87 100.43 1450.4 89.1159 1450.4 75.1597C1450.4 61.2034 1441.87 49.8896 1431.34 49.8896C1420.8 49.8896 1412.27 61.2034 1412.27 75.1597C1412.27 89.1159 1420.8 100.43 1431.34 100.43Z" fill="#095C19"/>
<path d="M1488.93 100.43C1499.46 100.43 1508 89.1159 1508 75.1597C1508 61.2034 1499.46 49.8896 1488.93 49.8896C1478.4 49.8896 1469.87 61.2034 1469.87 75.1597C1469.87 89.1159 1478.4 100.43 1488.93 100.43Z" fill="#095C19"/>
<path d="M1546.56 100.43C1557.09 100.43 1565.63 89.1159 1565.63 75.1597C1565.63 61.2034 1557.09 49.8896 1546.56 49.8896C1536.03 49.8896 1527.5 61.2034 1527.5 75.1597C1527.5 89.1159 1536.03 100.43 1546.56 100.43Z" fill="#095C19"/>
<path d="M929.691 751.288L906.295 809.936L893.541 747.235L929.691 751.288Z" fill="#095C19"/>
<path d="M943.911 904.015C941.643 919.23 914.156 923.231 914.156 923.231C914.156 923.231 914.119 924.073 914 925.6C913.717 929.601 912.847 938.13 910.66 948.501C905.811 971.349 894.418 1003.52 867.957 1016.52C859.026 1020.99 848.339 1023.26 835.629 1022.25C833.361 1022.1 831.055 1021.78 828.638 1021.42L774.498 1062.84L718.766 1008.2C718.766 1008.2 750.818 964.715 749.309 941.446C747.799 918.177 712.251 861.424 727.187 779.613C742.479 695.958 778.305 676.427 816.479 672.373C863.629 667.372 926.352 706.804 917.971 869.637C917.971 869.637 946.209 888.852 943.911 904.015Z" fill="#FFC17C"/>
<path d="M746.654 928.966L693.384 783.453C693.384 783.453 684.327 732.176 718.885 722.753C718.885 722.753 725.438 656.682 757.497 657.998C789.55 659.366 897.43 657.998 897.43 657.998C897.43 657.998 914.632 571.764 946.492 590.769C975.168 607.879 941.129 662.946 941.129 662.946C941.129 662.946 970.877 656.893 979.021 683.848C990.578 722.121 962.734 758.025 908.675 761.131H843.691C843.691 761.131 850.8 808.618 816.204 845.522L746.654 928.966Z" fill="#095C19"/>
<path d="M881.463 866.43C886.096 866.43 889.844 861.456 889.844 855.321C889.844 849.187 886.096 844.213 881.463 844.213C876.837 844.213 873.082 849.187 873.082 855.321C873.082 861.456 876.837 866.43 881.463 866.43Z" fill="#095C19"/>
<path d="M867.957 1016.52C859.026 1020.99 848.339 1023.26 835.629 1022.25C813.861 987.776 801.308 943.603 801.308 897.696V811.146H827.523V897.696C827.523 916.911 830.185 935.706 835.227 953.343C837.377 960.871 839.913 968.137 842.858 975.191C849.41 990.664 857.873 1004.73 867.957 1016.52Z" fill="#095C19"/>
<path d="M914 925.6C913.717 929.601 912.847 938.13 910.66 948.501C895.489 946.5 866.173 947.132 842.813 975.14C842.263 975.718 841.668 976.404 841.147 977.088L829.114 960.346C831.055 957.819 833.123 955.502 835.19 953.292C863.592 922.757 896.954 922.915 914 925.6Z" fill="#095C19"/>
<path d="M783.63 905.383C783.63 905.383 734.018 848.421 768.897 817.044C804.959 784.613 817.751 859.213 817.751 859.213L783.63 905.383Z" fill="#FFC17C"/>
<path d="M868.002 967.244C868.002 967.244 871.81 980.878 886.312 980.878" stroke="#095C19" stroke-width="1.06823" stroke-miterlimit="10" stroke-linecap="round" stroke-linejoin="round"/>
<path d="M781.087 899.961C781.087 899.961 745.776 874.638 759.72 835.89C770.162 806.882 796.027 810.041 805.517 824.782C814.017 837.944 818.747 857.476 818.747 857.476" stroke="#095C19" stroke-width="1.06823" stroke-miterlimit="10" stroke-linecap="round" stroke-linejoin="round"/>
<path d="M917.971 869.637C917.971 869.637 946.566 891.853 943.911 904.014C941.248 916.175 913.003 921.756 913.003 921.756" stroke="#095C19" stroke-width="1.06823" stroke-miterlimit="10" stroke-linecap="round" stroke-linejoin="round"/>
<path d="M916.818 775.35V794.671L954.315 793.776C954.315 793.776 953.638 850.792 986.249 902.332H1042.49L1010.56 767.084L951.571 766.19L916.818 775.35Z" fill="#FFC17C"/>
<path d="M698.904 2445.17C688.854 2471.39 682.459 2499.77 680.076 2528.98L676.541 2572.79L849.209 2583L847.982 2566.31C846.665 2548.73 838.091 2533.57 825.693 2527.09L779.421 2502.77L781.131 2451.49C781.406 2443.28 776.602 2436.32 770.4 2435.96L749.033 2434.7C742.955 2434.33 737.792 2440.43 737.315 2448.44C737.355 2448.39 697.474 2446.91 698.904 2445.17Z" fill="#E5E7EB"/>
<path d="M687.862 2546.72L830.029 2555.14" stroke="#095C19" stroke-width="1.06823" stroke-miterlimit="10" stroke-linecap="round" stroke-linejoin="round"/>
<path d="M418.866 1560.71C418.866 1560.71 368.897 1769.25 409.611 1845.32C450.326 1921.39 726.154 1994.99 726.154 1994.99L624.347 2458.7L709.51 2480.76L875.305 1947.09C884.007 1919.07 874.353 1887.02 853.5 1874.65L626.214 1739.82L615.091 1641.69L418.866 1560.71Z" fill="#095C19"/>
<path d="M679.877 1678.49L962.897 1866.06C988.235 1882.86 997.888 1924.24 984.108 1957.04L761.304 2488.13L687.266 2453.81L829.791 1960.67L463.315 1801.16L478.131 1587.73L679.877 1678.49Z" fill="#095C19"/>
<path d="M1042.46 902.278L983.23 899.803L957.097 1162.61L799.523 1083.8L810.046 1055.53L728.815 970.876L707.564 997.721L644.922 1000.67C644.922 1000.67 632.211 1003.41 620.176 1010.2L382.759 1153.4L381.726 1509.39L448.38 1481.17L466.413 1222.36L555.35 1193.99C555.35 1193.99 484.606 1347.77 466.532 1421.1C448.458 1494.44 431.696 1590.36 431.696 1590.36L696.878 1695.23C696.878 1695.23 724.088 1664.17 723.253 1647.37C722.42 1630.58 698.745 1600.42 698.745 1600.42L789.074 1209.84L982.122 1287.6C1006.23 1297.28 1030.74 1274.22 1031.77 1240.9L1042.46 902.278Z" fill="#E5E7EB"/>
<path d="M2262 988.042H1179.62C1153.48 988.042 1132.27 959.926 1132.27 925.284V345.864C1132.27 311.223 1153.48 283.111 1179.62 283.111H2262C2288.13 283.111 2309.34 311.223 2309.34 345.864V925.231C2309.34 959.926 2288.13 988.042 2262 988.042Z" fill="#374151"/>
<path d="M777.874 1080.11C804.721 1101.59 801.033 1140.51 801.033 1140.51C801.784 1151.46 788.598 1214.63 771.478 1290.91C770.526 1295.23 769.53 1299.54 768.533 1303.91C767.782 1307.23 767.031 1310.6 766.272 1313.97C760.553 1339.19 754.514 1365.4 748.476 1391.25C747.249 1396.46 746.051 1401.63 744.861 1406.73C742.082 1418.68 739.302 1430.53 736.561 1442.16C735.806 1445.42 735.012 1448.74 734.257 1452.01C733.463 1455.27 732.708 1458.48 731.953 1461.69C731.198 1464.91 730.443 1468.11 729.689 1471.28C727.584 1480.22 725.518 1488.91 723.532 1497.34C722.341 1502.23 721.228 1507.03 720.116 1511.66C719.043 1516.07 718.011 1520.39 717.017 1524.55C716.62 1526.29 716.223 1527.97 715.787 1529.66C715.19 1532.24 714.595 1534.71 713.999 1537.19C713.522 1539.19 713.045 1541.14 712.609 1543.03C712.291 1544.24 712.013 1545.46 711.735 1546.61C711.457 1547.77 711.179 1548.93 710.901 1550.09C710.305 1552.56 709.709 1554.98 709.153 1557.35C708.716 1559.3 708.239 1561.2 707.802 1563.09C703.393 1581.35 700.255 1594.31 698.984 1599.68C698.905 1599.94 698.825 1600.2 698.786 1600.47C698.468 1601.73 698.309 1602.36 698.309 1602.36C698.309 1602.36 721.189 1630.89 723.293 1647.42C725.359 1664.01 696.918 1695.28 696.918 1695.28L431.737 1590.41C432.848 1581.31 434.119 1572.31 435.47 1563.36C435.828 1560.77 436.265 1558.14 436.662 1555.56C437.139 1552.56 437.615 1549.51 438.132 1546.5C438.767 1542.72 439.403 1538.98 440.078 1535.19C440.753 1531.34 441.469 1527.45 442.223 1523.6C443.018 1519.24 443.891 1514.86 444.765 1510.54C445.48 1506.92 446.235 1503.28 447.029 1499.65C447.784 1496.07 448.539 1492.49 449.333 1488.97C450.366 1484.38 451.398 1479.8 452.471 1475.28C453.266 1471.8 454.099 1468.33 454.973 1464.91C457.476 1454.64 460.098 1444.47 462.839 1434.47C464.07 1430 465.302 1425.58 466.573 1421.15C469.274 1411.62 472.094 1402.26 474.993 1392.99C476.026 1389.62 477.099 1386.25 478.171 1382.93C480.277 1376.4 482.381 1369.93 484.566 1363.56C485.679 1360.24 486.791 1356.98 487.943 1353.71C488.976 1350.77 490.008 1347.87 491.041 1344.98C492.471 1340.87 493.941 1336.87 495.41 1332.87C496.88 1328.87 498.35 1324.86 499.859 1320.97C508.757 1297.33 518.052 1274.9 527.426 1253.69C528.975 1250.16 530.564 1246.63 532.113 1243.16C535.609 1235.37 539.104 1227.74 542.639 1220.36C545.38 1214.58 548.081 1208.89 550.822 1203.36C552.332 1200.2 553.881 1197.09 555.39 1194.04C555.43 1193.99 555.43 1193.94 555.43 1193.94H555.469" stroke="#ECEEED" stroke-width="2.13646" stroke-miterlimit="10" stroke-linecap="round" stroke-linejoin="round"/>
<path d="M448.38 1481.23L495.569 1540.08L502.361 1609.48C502.958 1615.69 499.899 1621.47 495.291 1622.84C490.525 1624.26 485.758 1620.43 484.487 1614.16L475.192 1568.3L470.505 1594.05C469.393 1600.1 465.857 1604.84 461.289 1606.42L421.488 1619.84L389.036 1599.41C386.533 1597.83 385.58 1593.83 386.891 1590.62C388.758 1586.1 392.611 1583.73 396.424 1584.73L403.892 1586.73L383.594 1547.19C377.834 1535.97 377.119 1521.55 381.687 1509.44L448.38 1481.23Z" fill="#FFC17C"/>
<path d="M635.349 1168.46L466.453 1222.41L448.419 1481.22L381.766 1509.44V1204.42C381.766 1170.35 397.933 1139.92 422.123 1128.44L625.538 1007.2C632.688 1002.94 640.434 1000.57 648.259 1000.25L707.563 997.78" stroke="#ECEEED" stroke-width="2.13646" stroke-miterlimit="10" stroke-linecap="round" stroke-linejoin="round"/>
<path d="M707.604 997.78L728.855 970.927L782.522 1027.36L746.408 1081.33L707.604 997.78Z" stroke="#ECEEED" stroke-width="2.13646" stroke-miterlimit="10" stroke-linecap="round" stroke-linejoin="round"/>
<path d="M799.642 1040.26L810.046 1055.58L795.47 1093.6" stroke="#ECEEED" stroke-width="2.13646" stroke-miterlimit="10" stroke-linecap="round" stroke-linejoin="round"/>
<path d="M619.302 2437.22C603.969 2458.49 591.695 2483.23 583.115 2510.35L570.206 2550.94L733.383 2626.49L735.806 2610.01C738.388 2592.68 733.423 2574.89 722.976 2563.94L683.93 2522.98L696.72 2474.5C698.785 2466.76 695.687 2458.22 689.808 2455.54L669.629 2446.17C663.909 2443.54 657.633 2447.38 655.449 2454.85C655.409 2454.91 617.515 2438.32 619.302 2437.22Z" fill="#E5E7EB"/>
<path d="M586.651 2530.29L720.99 2592.47" stroke="#095C19" stroke-width="1.06823" stroke-miterlimit="10" stroke-linecap="round" stroke-linejoin="round"/>
<path d="M803.888 1085.96L957.059 1162.61L984.822 899.491L1042.42 902.228L1033.76 1241.27C1032.89 1275.75 1007.46 1299.7 982.598 1289.49L792.77 1208.62" stroke="#ECEEED" stroke-width="2.13646" stroke-miterlimit="10" stroke-linecap="round" stroke-linejoin="round"/>
<path d="M984.859 899.541L937.195 836.998L943.189 805.095H983.468C986.249 805.095 988.518 808.095 988.518 811.78C988.518 817.519 985.498 822.52 981.244 823.731L964.92 828.417C964.92 828.417 989.432 824.099 1012.58 867.69" fill="#FFC17C"/>
<path d="M958.487 804.462H988.235C990.221 804.462 991.812 806.567 991.812 809.2V810.727C991.812 814.307 990.065 817.518 987.484 818.623L964.957 828.416C964.957 828.416 995.508 830.258 1011.71 865.846" stroke="#095C19" stroke-width="0.534114" stroke-miterlimit="10" stroke-linecap="round" stroke-linejoin="round"/>
<path d="M1474.51 468.371H1254.22C1244.01 468.371 1235.71 457.368 1235.71 443.839C1235.71 430.309 1244.01 419.306 1254.22 419.306H1474.51C1484.72 419.306 1493.02 430.309 1493.02 443.839C1493.02 457.421 1484.72 468.371 1474.51 468.371Z" fill="#6B7280"/>
<path d="M1944.89 467.688H1534.09C1523.89 467.688 1515.58 456.685 1515.58 443.155C1515.58 429.625 1523.89 418.622 1534.09 418.622H1944.94C1955.14 418.622 1963.45 429.625 1963.45 443.155C1963.4 456.685 1955.14 467.688 1944.89 467.688Z" fill="#23FA4B"/>
<path d="M1403.45 543.233H1295.88C1285.68 543.233 1277.37 532.229 1277.37 518.699C1277.37 505.17 1285.68 494.167 1295.88 494.167H1403.45C1413.66 494.167 1421.96 505.17 1421.96 518.699C1421.96 532.229 1413.66 543.233 1403.45 543.233Z" fill="#6B7280"/>
<path d="M1403.45 620.151H1353.95C1343.74 620.151 1335.44 609.148 1335.44 595.618C1335.44 582.088 1343.74 571.085 1353.95 571.085H1403.45C1413.66 571.085 1421.96 582.088 1421.96 595.618C1421.96 609.148 1413.66 620.151 1403.45 620.151Z" fill="#6B7280"/>
<path d="M2026.76 543.233H1474.99C1464.78 543.233 1456.48 532.229 1456.48 518.699C1456.48 505.17 1464.78 494.167 1474.99 494.167H2026.76C2036.97 494.167 2045.27 505.17 2045.27 518.699C2045.27 532.229 2036.97 543.233 2026.76 543.233Z" fill="#23FA4B"/>
<path d="M2026.76 618.043H1474.99C1464.78 618.043 1456.48 607.04 1456.48 593.51C1456.48 579.98 1464.78 568.977 1474.99 568.977H2026.76C2036.97 568.977 2045.27 579.98 2045.27 593.51C2045.27 607.04 2036.97 618.043 2026.76 618.043Z" fill="#23FA4B"/>
<path d="M1474.51 700.752H1254.22C1244.01 700.752 1235.71 689.749 1235.71 676.219C1235.71 662.689 1244.01 651.686 1254.22 651.686H1474.51C1484.72 651.686 1493.02 662.689 1493.02 676.219C1493.02 689.749 1484.72 700.752 1474.51 700.752Z" fill="#6B7280"/>
<path d="M2187.36 700.066H1534.09C1523.89 700.066 1515.58 689.063 1515.58 675.533C1515.58 662.002 1523.89 651 1534.09 651H2187.4C2197.61 651 2205.91 662.002 2205.91 675.533C2205.87 689.063 2197.56 700.066 2187.36 700.066Z" fill="#23FA4B"/>
<path d="M1403.45 775.557H1295.88C1285.68 775.557 1277.37 764.554 1277.37 751.024C1277.37 737.495 1285.68 726.492 1295.88 726.492H1403.45C1413.66 726.492 1421.96 737.495 1421.96 751.024C1421.96 764.607 1413.66 775.557 1403.45 775.557Z" fill="#6B7280"/>
<path d="M1403.45 852.529H1353.95C1343.74 852.529 1335.44 841.526 1335.44 827.996C1335.44 814.465 1343.74 803.462 1353.95 803.462H1403.45C1413.66 803.462 1421.96 814.465 1421.96 827.996C1421.96 841.526 1413.66 852.529 1403.45 852.529Z" fill="#6B7280"/>
<path d="M2103.11 775.557H1474.99C1464.78 775.557 1456.48 764.554 1456.48 751.024C1456.48 737.495 1464.78 726.492 1474.99 726.492H2103.11C2113.32 726.492 2121.62 737.495 2121.62 751.024C2121.62 764.607 2113.32 775.557 2103.11 775.557Z" fill="#23FA4B"/>
<path d="M2026.76 850.421H1474.99C1464.78 850.421 1456.48 839.418 1456.48 825.888C1456.48 812.358 1464.78 801.355 1474.99 801.355H2026.76C2036.97 801.355 2045.27 812.358 2045.27 825.888C2045.27 839.418 2036.97 850.421 2026.76 850.421Z" fill="#23FA4B"/>
<path d="M673.879 1764.35L853.738 1875.17C875.067 1888.33 884.884 1921.34 875.982 1950.25L725.28 2439.64" stroke="#4B5563" stroke-width="1.06823" stroke-miterlimit="10" stroke-linecap="round"/>
<path d="M2431.48 842.472C2431.48 842.472 2476.85 410.039 2555.97 410.039C2630.93 410.039 2623.07 563.397 2673.07 563.397C2730.47 563.397 2730.67 239.572 2827.2 239.572C2910.49 239.572 2902.38 445.944 2937.58 445.944C2972.77 445.944 2970.19 232.202 3038.23 232.202C3112.51 232.202 3094.68 492.851 3129.87 492.851C3165.06 492.851 3167.13 389.823 3216.62 389.823C3283.71 389.823 3300.64 840.63 3300.64 840.63L2431.48 842.472Z" fill="#374151"/>
<path d="M2449.56 842.471C2449.56 842.471 2489.83 566.449 2557.84 566.449C2632.79 566.449 2623.1 743.707 2673.07 743.707C2730.47 743.707 2730.67 419.883 2827.2 419.883C2912.59 419.883 2901.23 579.347 2936.43 579.347C2971.62 579.347 2971.58 444.1 3032 444.1C3106.27 444.1 3094.72 673.162 3129.87 673.162C3165.03 673.162 3159.63 517.962 3214.08 517.962C3263.81 517.962 3297.86 841.787 3297.86 841.787L2449.56 842.471Z" fill="url(#paint1_linear_4509_1082)"/>
<defs>
<linearGradient id="paint0_linear_4509_1082" x1="1015.45" y1="-254.196" x2="2278.73" y2="2634.7" gradientUnits="userSpaceOnUse">
<stop stop-color="#095C19"/>
<stop offset="1" stop-color="#23FA4B" stop-opacity="0"/>
</linearGradient>
<linearGradient id="paint1_linear_4509_1082" x1="2720.9" y1="294.401" x2="2882.7" y2="855.21" gradientUnits="userSpaceOnUse">
<stop stop-color="#095C19"/>
<stop offset="1" stop-color="#23FA4B" stop-opacity="0"/>
</linearGradient>
</defs>
</svg>
