<svg width="49" height="13" viewBox="0 0 49 13" fill="none" xmlns="http://www.w3.org/2000/svg">
<g clip-path="url(#clip0_4517_1191)">
<path d="M48.9999 7.7601L39.8505 0.71582L38.3246 12.1615L48.9999 7.7601ZM1.29707 8.71491C1.55915 8.63333 1.86273 8.54826 2.20847 8.46122L1.7202 6.52173C1.34495 6.61621 1.00539 6.71105 0.702637 6.80529L1.29707 8.71491ZM4.11126 8.05001C4.69936 7.93972 5.34877 7.83075 6.05923 7.72567L5.76659 5.7472C5.03291 5.85571 4.35804 5.96886 3.74259 6.08429L4.11126 8.05001ZM8.02325 7.4653C8.64647 7.39148 9.30485 7.32126 9.99818 7.25576L9.81008 5.26463C9.10155 5.33156 8.42746 5.40344 7.788 5.47918L8.02325 7.4653ZM11.9765 7.08961C12.6169 7.04223 13.282 6.99896 13.9719 6.96049L13.8605 4.96359C13.1588 5.00273 12.4816 5.04677 11.8289 5.09506L11.9765 7.08961ZM15.9564 6.86626C16.6028 6.84077 17.2682 6.81945 17.9524 6.80277L17.9036 4.80337C17.2095 4.82029 16.5341 4.84192 15.8776 4.86781L15.9564 6.86626ZM19.954 6.76817C20.6029 6.76144 21.267 6.75884 21.9463 6.76068L21.9517 4.76069C21.2638 4.75882 20.591 4.76146 19.9333 4.76827L19.954 6.76817ZM23.9421 6.77853C24.5951 6.78837 25.2609 6.80227 25.9395 6.82047L25.9932 4.82119C25.3067 4.80278 24.6331 4.78872 23.9722 4.77876L23.9421 6.77853ZM27.9375 6.88535C28.5924 6.91026 29.2583 6.93913 29.9352 6.97217L30.0327 4.97454C29.3486 4.94116 28.6756 4.91198 28.0135 4.8868L27.9375 6.88535ZM31.9322 7.08001C32.5879 7.11879 33.2533 7.16142 33.9284 7.20808L34.0662 5.21284C33.3846 5.16572 32.7126 5.12267 32.0503 5.0835L31.9322 7.08001ZM35.9237 7.35567C36.58 7.40736 37.2448 7.46281 37.9183 7.52216L38.0939 5.52988C37.4143 5.46999 36.7431 5.41403 36.0807 5.36185L35.9237 7.35567ZM39.9123 7.707C40.5692 7.77086 41.234 7.83838 41.9062 7.9097L42.1173 5.92085C41.4391 5.84892 40.7686 5.78081 40.1059 5.71638L39.9123 7.707ZM43.8981 8.12957C44.5524 8.20461 45.2136 8.28319 45.8819 8.36543L46.1262 6.38041C45.4525 6.2975 44.7857 6.21826 44.1259 6.14259L43.8981 8.12957Z" fill="#23FA4B"/>
</g>
<defs>
<clipPath id="clip0_4517_1191">
<rect width="49" height="13" fill="white"/>
</clipPath>
</defs>
</svg>
