<svg width="52" height="52" viewBox="0 0 52 52" fill="none" xmlns="http://www.w3.org/2000/svg">
<g clip-path="url(#clip0_4509_1190)">
<path fill-rule="evenodd" clip-rule="evenodd" d="M25.9997 0.144531C33.3813 0.144531 39.3654 6.12861 39.3654 13.5102C39.3654 20.8918 33.3813 26.8759 25.9997 26.8759C18.6181 26.8759 12.634 20.8918 12.634 13.5102C12.634 6.12861 18.6181 0.144531 25.9997 0.144531ZM12.4484 49.8449L8.82913 51.3477C8.41084 51.5215 7.94443 51.5209 7.52613 51.3483C7.10783 51.1756 6.7767 50.8473 6.60237 50.429C4.55956 45.5232 2.51619 40.6174 0.473386 35.7122C0.293388 35.2803 0.292822 34.8394 0.471122 34.407C0.649422 33.9745 0.960739 33.6626 1.39319 33.4832L5.01239 31.9804C5.43068 31.8066 5.89709 31.8072 6.31539 31.9798C6.73369 32.1525 7.06538 32.4808 7.23915 32.899C9.28196 37.8048 11.3254 42.7101 13.3682 47.6158C13.5482 48.0477 13.5487 48.4887 13.3704 48.9211C13.1916 49.3536 12.8803 49.6654 12.4484 49.8449ZM49.366 38.9986C50.206 38.6748 50.8689 37.986 51.2645 37.1884C51.603 36.5064 51.8 35.6132 51.5487 34.8722C51.4926 34.707 51.4145 34.5513 51.3143 34.4092C50.8298 33.7226 49.9434 33.4889 49.1481 33.4334C47.9498 33.3496 46.6168 33.6258 45.4723 33.9615L35.3709 36.9247L35.3738 37.0469C35.3839 37.4675 35.3324 37.8869 35.2238 38.2933C34.9181 39.4339 34.1834 40.3837 33.1611 40.974C32.1417 41.5627 30.9463 41.7246 29.8085 41.4195L19.9907 38.7892C19.4836 38.6533 19.1796 38.1263 19.3155 37.6192C19.4513 37.112 19.9777 36.8075 20.4854 36.9439L30.3021 39.5742C30.9474 39.7475 31.6283 39.6535 32.2068 39.3195C32.7864 38.9844 33.2053 38.445 33.3791 37.798C33.5523 37.1522 33.4583 36.4724 33.1243 35.8939C32.7898 35.3137 32.2504 34.8954 31.6034 34.7217L24.2167 32.7428C24.1069 32.7134 24.0039 32.6647 23.9111 32.5991C22.9279 31.9017 21.8439 31.2298 20.7079 30.8132C19.8368 30.494 18.9611 30.3389 18.0328 30.4051C17.2534 30.4606 16.5034 30.6666 15.7738 30.9383C14.9219 31.2553 14.091 31.6577 13.2748 32.0574C12.0289 32.6664 10.7786 33.2675 9.52648 33.8641L9.3895 33.9292L13.8323 44.5966L14.241 44.398C15.5627 43.755 16.9461 43.6372 18.3572 44.047L26.5046 46.4125C28.655 47.0368 31.5559 45.8708 33.5777 45.0846C34.4149 44.7591 35.2543 44.4382 36.092 44.1149C37.8852 43.4238 39.6784 42.7327 41.4716 42.0416C44.1025 41.0273 46.734 40.0124 49.366 38.9986ZM25.2514 21.0894V21.6141C25.2514 22.0273 25.5865 22.3624 25.9997 22.3624C26.4129 22.3624 26.748 22.0273 26.748 21.6141V21.0894C26.748 20.6762 26.4129 20.3411 25.9997 20.3411C25.5865 20.3411 25.2514 20.6762 25.2514 21.0894ZM25.9997 14.8296C26.2041 14.8296 26.3976 14.7832 26.5703 14.7L28.4738 15.7987C28.8304 16.0036 29.2861 15.8808 29.4916 15.5236C29.6965 15.167 29.5736 14.7113 29.2165 14.5059L27.3152 13.4083C27.284 12.9997 27.0667 12.6425 26.748 12.4223V8.93839C26.748 8.52519 26.4129 8.19009 25.9997 8.19009C25.5865 8.19009 25.2514 8.52519 25.2514 8.93839V12.4223C24.9067 12.6606 24.6803 13.0585 24.6803 13.5091C24.6803 14.2387 25.2712 14.8296 25.9997 14.8296ZM30.8302 19.3986L31.2015 19.77C31.4936 20.062 31.9679 20.062 32.26 19.77C32.5521 19.4779 32.5521 19.0036 32.26 18.7115L31.8887 18.3402C31.5966 18.0481 31.1223 18.0481 30.8302 18.3402C30.5376 18.6322 30.5376 19.1066 30.8302 19.3986ZM33.5789 14.2585H34.1036C34.5168 14.2585 34.8519 13.9234 34.8519 13.5102C34.8519 13.097 34.5168 12.7619 34.1036 12.7619H33.5789C33.1657 12.7619 32.8306 13.097 32.8306 13.5102C32.8306 13.9234 33.1657 14.2585 33.5789 14.2585ZM31.8881 8.68028L32.2595 8.30896C32.5515 8.01689 32.5515 7.54256 32.2595 7.25048C31.9674 6.95841 31.493 6.95841 31.201 7.25048L30.8297 7.6218C30.5376 7.91387 30.5376 8.38821 30.8297 8.68028C31.1217 8.97235 31.5961 8.97235 31.8881 8.68028ZM21.1698 7.6218L20.7985 7.25048C20.5064 6.95841 20.0321 6.95841 19.74 7.25048C19.4479 7.54256 19.4479 8.01689 19.74 8.30896L20.1113 8.68028C20.4034 8.97235 20.8777 8.97235 21.1698 8.68028C21.4619 8.38764 21.4619 7.91387 21.1698 7.6218ZM18.4206 12.7619H17.8959C17.4827 12.7619 17.1476 13.097 17.1476 13.5102C17.1476 13.9234 17.4827 14.2585 17.8959 14.2585H18.4206C18.8338 14.2585 19.1689 13.9234 19.1689 13.5102C19.1694 13.097 18.8343 12.7619 18.4206 12.7619ZM20.1113 18.3402L19.74 18.7115C19.4479 19.0036 19.4479 19.4779 19.74 19.77C20.0321 20.062 20.5064 20.062 20.7985 19.77L21.1698 19.3986C21.4619 19.1066 21.4619 18.6322 21.1698 18.3402C20.8777 18.0481 20.4039 18.0481 20.1113 18.3402ZM26.7486 5.93107V5.40579C26.7486 4.99259 26.4135 4.6575 26.0003 4.6575C25.5871 4.6575 25.252 4.99259 25.252 5.40579V5.9305C25.252 6.3437 25.5871 6.67879 26.0003 6.67879C26.4135 6.67879 26.7486 6.34427 26.7486 5.93107ZM25.9997 2.22526C22.8837 2.22526 20.0626 3.48864 18.0204 5.53032C15.9781 7.57256 14.7153 10.3937 14.7153 13.5097C14.7153 16.6257 15.9787 19.4468 18.0204 21.489C20.0626 23.5312 22.8837 24.7941 25.9997 24.7941C29.1157 24.7941 31.9368 23.5307 33.9791 21.489C36.0213 19.4468 37.2841 16.6257 37.2841 13.5097C37.2841 10.3937 36.0207 7.57256 33.9791 5.53032C31.9374 3.48864 29.1157 2.22526 25.9997 2.22526ZM32.9206 6.58936C31.1495 4.81825 28.7025 3.72298 25.9997 3.72298C23.2969 3.72298 20.85 4.81825 19.0789 6.58936C17.3077 8.36047 16.2125 10.8074 16.2125 13.5102C16.2125 16.213 17.3077 18.66 19.0789 20.4311C20.85 22.2022 23.2969 23.2975 25.9997 23.2975C28.7025 23.2975 31.1495 22.2022 32.9206 20.4311C34.6917 18.66 35.7875 16.213 35.7875 13.5102C35.7875 10.8074 34.6923 8.36047 32.9206 6.58936Z" fill="url(#paint0_linear_4509_1190)"/>
</g>
<defs>
<linearGradient id="paint0_linear_4509_1190" x1="12.1597" y1="21.5271" x2="62.7023" y2="28.893" gradientUnits="userSpaceOnUse">
<stop stop-color="#095C19"/>
<stop offset="1" stop-color="#23FA4B" stop-opacity="0.51"/>
</linearGradient>
<clipPath id="clip0_4509_1190">
<rect width="52" height="52" fill="white"/>
</clipPath>
</defs>
</svg>
