<svg width="36" height="37" viewBox="0 0 36 37" fill="none" xmlns="http://www.w3.org/2000/svg">
<path d="M15.525 26.0606L24 17.5856L21.825 15.4106L15.495 21.7556L12.345 18.6056L10.2 20.7356M9.75 30.5606C7.47 30.5606 5.525 29.7756 3.915 28.2056C2.305 26.6256 1.5 24.7006 1.5 22.4306C1.5 20.4806 2.085 18.7406 3.255 17.2106C4.435 15.6806 5.975 14.7056 7.875 14.2856C8.505 11.9856 9.755 10.1256 11.625 8.70555C13.505 7.27555 15.63 6.56055 18 6.56055C20.93 6.56055 23.41 7.58055 25.44 9.62055C27.48 11.6506 28.5 14.1306 28.5 17.0606C30.23 17.2606 31.66 18.0106 32.79 19.3106C33.93 20.5906 34.5 22.0906 34.5 23.8106C34.5 25.6906 33.845 27.2856 32.535 28.5956C31.225 29.9056 29.63 30.5606 27.75 30.5606H9.75Z" fill="#23FA4B"/>
</svg>
