<svg width="49" height="12" viewBox="0 0 49 12" fill="none" xmlns="http://www.w3.org/2000/svg">
<g clip-path="url(#clip0_4517_1193)">
<path d="M48.9999 4.76004L39.8749 11.8359L38.3095 0.395508L48.9999 4.76004ZM1.30296 5.30708C1.54947 5.38549 1.84342 5.46417 2.18676 5.54142L1.74777 7.49264C1.36139 7.40572 1.00997 7.31262 0.696777 7.21301L1.30296 5.30708ZM4.08133 5.87527C4.66913 5.95733 5.32073 6.03278 6.03542 6.10013L5.8478 8.09131C5.10776 8.02158 4.42619 7.94281 3.80478 7.85606L4.08133 5.87527ZM8.0086 6.25428C8.63412 6.29413 9.29489 6.32849 9.99042 6.35677L9.90917 8.35512C9.19937 8.32626 8.52327 8.29112 7.88145 8.25024L8.0086 6.25428ZM11.9762 6.41844C12.6184 6.4326 13.2851 6.442 13.9759 6.4463L13.9635 8.44626C13.2625 8.4419 12.5853 8.43236 11.9321 8.41796L11.9762 6.41844ZM15.9656 6.44477C16.6129 6.43993 17.2785 6.43089 17.9624 6.4174L18.0018 8.41701C17.31 8.43065 16.6362 8.43981 15.9805 8.44472L15.9656 6.44477ZM19.9644 6.36659C20.6154 6.3465 21.2811 6.32258 21.9614 6.29465L22.0434 8.29296C21.3565 8.32117 20.684 8.34534 20.0261 8.36564L19.9644 6.36659ZM23.9562 6.20318C24.6094 6.17018 25.2748 6.13362 25.9523 6.09337L26.0709 8.08985C25.3876 8.13044 24.7163 8.16733 24.0571 8.20063L23.9562 6.20318ZM27.9487 5.96632C28.6036 5.92192 29.2689 5.87418 29.9447 5.82299L30.0957 7.81728C29.4148 7.86886 28.7442 7.91698 28.0839 7.96174L27.9487 5.96632ZM31.94 5.6642C32.5958 5.60954 33.2606 5.55172 33.9345 5.49064L34.1151 7.48248C33.4364 7.54399 32.7667 7.60223 32.1061 7.65729L31.94 5.6642ZM35.9283 5.30291C36.5847 5.23883 37.2491 5.17172 37.9214 5.10152L38.1291 7.09071C37.4523 7.16137 36.7835 7.22892 36.1226 7.29345L35.9283 5.30291ZM39.9142 4.88692C40.5712 4.81402 41.2354 4.73823 41.9067 4.65947L42.1397 6.64585C41.4642 6.72509 40.7959 6.80136 40.1347 6.87472L39.9142 4.88692ZM43.8951 4.42004C44.5501 4.33916 45.2115 4.2555 45.8794 4.16901L46.1362 6.15245C45.4645 6.23944 44.7991 6.32359 44.1402 6.40496L43.8951 4.42004Z" fill="#23FA4B"/>
</g>
<defs>
<clipPath id="clip0_4517_1193">
<rect width="49" height="12" fill="white"/>
</clipPath>
</defs>
</svg>
