<svg width="42" height="52" viewBox="0 0 42 52" fill="none" xmlns="http://www.w3.org/2000/svg">
<g clip-path="url(#clip0_4509_1391)">
<path fill-rule="evenodd" clip-rule="evenodd" d="M0.145874 0.144531H41.854V51.4779H0.145874V0.144531ZM1.88371 1.7487V49.8737H40.1162V1.7487H1.88371ZM36.6405 41.853H13.1797V45.0614H36.6405V41.853ZM11.229 41.2847C10.932 40.9878 10.4332 40.9718 10.1149 41.2488L6.93258 44.0179L5.91953 42.6958L5.8515 42.6185C5.58538 42.3548 5.14463 42.3085 4.81988 42.5248C4.46561 42.7609 4.38356 43.2201 4.63661 43.5505L6.17224 45.5557L6.23562 45.6284C6.52716 45.9226 7.02833 45.9472 7.35157 45.6658L11.1906 42.3238L11.2639 42.2508C11.5096 41.9704 11.5013 41.5568 11.229 41.2847ZM36.6405 35.4364H13.1797V38.6447H36.6405V35.4364ZM9.50529 34.817L9.43609 34.7612C9.17119 34.5751 8.79146 34.5937 8.54953 34.817L7.09716 36.1587L5.64342 34.817L5.57421 34.7612C5.30932 34.5751 4.92959 34.5937 4.68766 34.817C4.42373 35.0606 4.42373 35.4556 4.68766 35.6993L6.14066 37.0397L4.68766 38.3818C4.42373 38.6255 4.42373 39.0204 4.68766 39.2641C4.92959 39.4874 5.30932 39.506 5.57421 39.3199L5.64342 39.2641L7.09716 37.9224L8.54953 39.2641C8.79146 39.4874 9.17119 39.506 9.43609 39.3199L9.50529 39.2641C9.74723 39.0407 9.76739 38.6902 9.56578 38.4457L9.50529 38.3818L8.05142 37.0405L9.50529 35.6993L9.56578 35.6354C9.76739 35.3908 9.74723 35.0403 9.50529 34.817ZM31.4262 17.7905C31.4262 12.4748 26.7579 8.16551 20.9992 8.16551C15.2405 8.16551 10.5721 12.4748 10.5721 17.7905C10.5721 23.1063 15.2405 27.4155 20.9992 27.4155C26.7579 27.4155 31.4262 23.1063 31.4262 17.7905ZM20.5369 12.1759H21.3572V13.1641C21.7743 13.2069 22.1658 13.2903 22.532 13.4144C22.8981 13.5384 23.2201 13.7095 23.4982 13.9277C23.7762 14.1459 24.0033 14.4175 24.1794 14.7426C24.3555 15.0677 24.4575 15.4527 24.4853 15.8976H22.5111C22.5018 15.5554 22.386 15.2645 22.1635 15.0249C21.9411 14.7854 21.6723 14.6656 21.3572 14.6656V16.9371C21.4684 16.9628 21.5819 16.9884 21.6978 17.0141C21.8136 17.0398 21.9365 17.0697 22.0662 17.1039C22.7521 17.2751 23.2804 17.4868 23.6511 17.7392C24.0219 17.9916 24.2953 18.2547 24.4714 18.5284C24.6475 18.8022 24.7518 19.076 24.7842 19.3498C24.8166 19.6236 24.8329 19.8674 24.8329 20.0813C24.8329 20.2695 24.7819 20.5069 24.6799 20.7935C24.578 21.0801 24.3949 21.3603 24.1308 21.6341C23.8666 21.9079 23.5121 22.1517 23.0672 22.3656C22.6223 22.5795 22.0523 22.7078 21.3572 22.7506V23.8414H20.5369V22.7506C19.4988 22.6822 18.6878 22.387 18.1039 21.8651C17.52 21.3432 17.1817 20.5775 17.089 19.5679H19.0493C19.04 20.0556 19.1791 20.4406 19.4664 20.7229C19.7537 21.0053 20.1106 21.1849 20.5369 21.2619V18.5798C20.4906 18.5627 20.428 18.5434 20.3492 18.522C20.2704 18.5006 20.1847 18.4814 20.092 18.4643C19.7491 18.3787 19.4108 18.2782 19.0771 18.1627C18.7435 18.0472 18.4446 17.8932 18.1804 17.7007C17.9162 17.5082 17.7054 17.2686 17.5478 16.982C17.3903 16.6954 17.3115 16.3382 17.3115 15.9104C17.3115 15.4741 17.4018 15.0891 17.5826 14.7554C17.7633 14.4218 18.002 14.1416 18.2986 13.9149C18.5952 13.6881 18.9381 13.5127 19.3274 13.3887C19.7167 13.2646 20.1198 13.1898 20.5369 13.1641V12.1759ZM22.518 19.2535C22.291 19.0867 21.904 18.9348 21.3572 18.7979V21.2619C21.524 21.2448 21.6978 21.2085 21.8785 21.1529C22.0593 21.0973 22.2215 21.0181 22.3651 20.9154C22.5088 20.8128 22.627 20.6866 22.7196 20.5369C22.8123 20.3871 22.8587 20.2096 22.8587 20.0043C22.8587 19.6706 22.7451 19.4204 22.518 19.2535ZM20.5369 16.7574V14.6656C20.3793 14.6656 20.2264 14.687 20.0781 14.7298C19.9298 14.7726 19.7954 14.8389 19.6749 14.9287C19.5545 15.0185 19.4594 15.1297 19.3899 15.2624C19.3204 15.395 19.2857 15.5511 19.2857 15.7308C19.2857 16.0131 19.383 16.2313 19.5776 16.3853C19.7723 16.5393 20.092 16.6633 20.5369 16.7574Z" fill="url(#paint0_linear_4509_1391)"/>
</g>
<defs>
<linearGradient id="paint0_linear_4509_1391" x1="9.75273" y1="21.5271" x2="51.1179" y2="26.426" gradientUnits="userSpaceOnUse">
<stop stop-color="#095C19"/>
<stop offset="1" stop-color="#23FA4B" stop-opacity="0.51"/>
</linearGradient>
<clipPath id="clip0_4509_1391">
<rect width="42" height="52" fill="white"/>
</clipPath>
</defs>
</svg>
